<svg width="370" height="87" xmlns="http://www.w3.org/2000/svg" xmlns:xlink="http://www.w3.org/1999/xlink" xml:space="preserve" overflow="hidden"><g><path d="M369.996 0 0 0 0 86.8977 369.996 86.8977 369.996 0Z" fill="#7746FF" fill-rule="evenodd"/><path d="M61.0758 16.7007 51.729 16.7007 51.729 36.8679 18.3467 36.8679 18.3467 16.7007 8.99993 16.7007 8.99993 66.4274 18.3467 66.4274 18.3467 46.2739 51.729 46.2739 51.729 66.4274 61.0758 66.4274 61.0758 16.7007Z" fill="#FFFFFF" fill-rule="evenodd"/><path d="M166.551 46.6023 165.003 38.8849 160.783 32.5869 154.525 28.3383 146.859 26.7773 131.506 26.7773 127.767 27.1334 124.267 28.1601 121.069 29.7847 118.237 31.948 120.024 33.9377 121.449 36.2609 122.64 39.4142 122.837 40.0258 123.011 40.6465 124.633 38.812 126.64 37.4062 128.959 36.5028 131.506 36.188 146.859 36.188 150.887 37.0048 154.176 39.2364 156.394 42.5496 157.205 46.6023 156.394 50.6551 154.176 53.9683 150.887 56.1999 146.859 57.0167 131.506 57.0167 121.156 48.8156 121.156 44.8771 120.936 43.2068 111.896 29.7847 101.464 26.7773 86.1057 26.7773 78.4405 28.3383 72.1819 32.5869 67.9621 38.8849 66.4133 46.6023 67.9621 54.3198 72.1819 60.6221 78.4405 64.8664 86.1057 66.4274 101.464 66.4274 114.728 61.2567 112.945 59.2666 111.521 56.9437 110.329 53.7901 110.128 53.1788 109.953 52.5579 108.332 54.3927 106.325 55.7981 104.011 56.7019 101.464 57.0167 86.1057 57.0167 82.0785 56.1999 78.7933 53.9683 76.5757 50.6551 75.76 46.6023 76.5757 42.5496 78.7933 39.2364 82.0785 37.0048 86.1057 36.188 101.464 36.188 111.809 44.3887 111.809 48.3276 112.029 50.0022 118.485 61.4482 118.485 79.8722 127.832 79.8722 127.832 66.0806 131.506 66.4274 146.859 66.4274 154.525 64.8664 160.783 60.6221 165.003 54.3198 166.551 46.6023Z" fill="#FFFFFF" fill-rule="evenodd"/><path d="M213.29 53.3247 212.268 48.2223 209.478 44.0556 205.341 41.2491 200.273 40.2177 180.805 40.2177 179.912 39.314 179.912 37.0914 180.805 36.188 209.95 36.188 209.95 26.7773 181.91 26.7773 177.493 27.6764 173.887 30.1272 171.454 33.7552 170.565 38.205 171.454 42.6502 173.887 46.2829 177.497 48.729 181.914 49.6281 202.298 49.6281 203.943 51.28 203.943 55.3648 202.298 57.0167 170.565 57.0167 170.565 66.4274 200.273 66.4274 205.341 65.3961 209.478 62.5892 212.268 58.4225 213.29 53.3247Z" fill="#FFFFFF" fill-rule="evenodd"/><path d="M266.03 66.4317 240.098 45.2605 262.333 26.7866 249.407 26.7866 226.627 45.7216 226.627 13.3462 217.294 13.3462 217.294 66.4317 226.627 66.4317 226.627 56.4601 233.225 50.9789 252.152 66.4317 266.03 66.4317Z" fill="#FFFFFF" fill-rule="evenodd"/><path d="M277.379 26.7773 268.032 26.7773 268.032 66.4274 277.379 66.4274 277.379 26.7773Z" fill="#FFFFFF" fill-rule="evenodd"/><path d="M278.712 14.7063 276.023 12 269.388 12 266.699 14.7063 266.699 21.3874 269.388 24.094 276.023 24.094 278.712 21.3874 278.712 18.0468 278.712 14.7063Z" fill="#FFFFFF" fill-rule="evenodd"/><path d="M300.077 57.026 295.193 57.026 293.401 55.2189 293.401 13.3462 284.055 13.3462 284.055 52.9916 285.104 58.2263 287.963 62.4979 292.21 65.3777 297.406 66.4317 300.077 66.4317 300.077 57.026Z" fill="#FFFFFF" fill-rule="evenodd"/><path d="M318.77 57.026 313.886 57.026 312.09 55.2189 312.09 13.3462 302.748 13.3462 302.748 52.9916 303.797 58.2263 306.656 62.4979 310.899 65.3777 316.099 66.4317 318.77 66.4317 318.77 57.026Z" fill="#FFFFFF" fill-rule="evenodd"/><path d="M364.831 53.3247 363.809 48.2223 361.018 44.0556 356.881 41.2491 351.814 40.2177 332.35 40.2177 331.452 39.314 331.452 37.0914 332.35 36.188 361.495 36.188 361.495 26.7773 333.45 26.7773 329.034 27.6764 325.428 30.1272 322.999 33.7552 322.106 38.205 322.999 42.6502 325.432 46.2829 329.038 48.729 333.455 49.6281 353.843 49.6281 355.484 51.28 355.484 55.3648 353.843 57.0167 322.106 57.0167 322.106 66.4274 351.814 66.4274 356.881 65.3961 361.018 62.5892 363.809 58.4225 364.831 53.3247Z" fill="#FFFFFF" fill-rule="evenodd"/></g></svg>