<?xml version="1.0" encoding="utf-8"?>
<!-- Generator: Adobe Illustrator 24.0.1, SVG Export Plug-In . SVG Version: 6.00 Build 0)  -->
<svg version="1.1" id="Layer_1" xmlns="http://www.w3.org/2000/svg" xmlns:xlink="http://www.w3.org/1999/xlink" x="0px" y="0px"
	 viewBox="0 0 2000 2000" style="enable-background:new 0 0 2000 2000;" xml:space="preserve">
<style type="text/css">
	.st0{fill:url(#SVGID_1_);}
	.st1{fill:url(#SVGID_2_);}
</style>
<g>
	<path d="M418.55,1075.63c-3.46,0-5.19-1.47-5.19-4.41V875.32c0-2.15,0.43-3.57,1.3-4.26c0.86-0.68,1.97-1.03,3.32-1.03h38.63
		c2.69,0,4.04,1.47,4.04,4.41v73.72c0,0.59,0.19,0.88,0.58,0.88h66.3c0.96,0,1.44-0.49,1.44-1.47v-73.14c0-2.94,1.73-4.41,5.19-4.41
		h36.03c2.31,0,3.89,0.64,4.76,1.91c0.86,1.28,1.3,2.89,1.3,4.85v194.15c0,1.57-0.48,2.74-1.44,3.52c-0.96,0.79-2.02,1.17-3.17,1.17
		h-36.32c-4.23,0-6.34-1.96-6.34-5.87v-73.43c0-1.96-0.96-2.94-2.88-2.94h-64.57c-0.58,0-0.86,0.29-0.86,0.88v76.66
		c0,3.13-1.44,4.7-4.32,4.7H418.55z"/>
	<path d="M1018.74,973.12c-6.92,0-12.73,0.44-17.44,1.32c-4.71,0.88-7.06,3.08-7.06,6.61c0,2.35,1.63,4.11,4.9,5.29
		c3.27,1.17,7.4,2.25,12.4,3.23c5,0.98,10.38,2.25,16.14,3.82c5.77,1.57,11.14,4.02,16.14,7.34c5,3.33,9.13,7.78,12.4,13.36
		c3.27,5.58,4.9,12.97,4.9,22.18c0,14.69-5.24,25.41-15.71,32.16c-10.48,6.76-25.61,10.13-45.4,10.13
		c-10.19,0-18.98-0.39-26.38-1.17c-7.4-0.79-13.69-2.35-18.88-4.7c-1.54-0.59-2.5-1.42-2.88-2.5c-0.39-1.07-0.58-2.4-0.58-3.97
		v-31.43c0-1.17,0.43-2.01,1.3-2.5c0.86-0.49,1.87-0.34,3.03,0.44c5,3.13,10.57,5.39,16.72,6.75c6.15,1.37,12.78,2.06,19.89,2.06
		c16.53,0,24.79-2.25,24.79-6.76c0-2.35-1.69-4.01-5.04-4.99c-3.37-0.98-7.55-1.96-12.54-2.94c-5-0.98-10.38-2.25-16.14-3.82
		c-5.77-1.56-11.15-4.01-16.14-7.34c-5-3.33-9.18-7.93-12.54-13.8c-3.36-5.87-5.04-13.61-5.04-23.2c0-5.68,1.2-11.06,3.6-16.15
		c2.4-5.09,6.1-9.59,11.1-13.51c5-3.91,11.24-7.05,18.74-9.4s16.43-3.52,26.81-3.52c10.38,0,18.78,0.54,25.22,1.62
		c6.44,1.08,11.58,2.4,15.42,3.97c2.5,0.98,4.22,2.01,5.19,3.08c0.96,1.08,1.44,2.99,1.44,5.73v26.73c0,1.76-0.48,3.08-1.44,3.97
		c-0.96,0.88-2.79,0.64-5.48-0.73c-4.61-2.35-9.66-4.16-15.13-5.43C1029.55,973.76,1024.12,973.12,1018.74,973.12z"/>
	<path d="M1134.91,1022.18c-0.96-0.98-1.44-1.37-1.44-1.17c0,0.2,0,0.88,0,2.06v46.11c0,2.16-0.24,3.77-0.72,4.85
		c-0.48,1.08-1.78,1.62-3.89,1.62h-35.17c-3.46,0-5.19-1.96-5.19-5.87V865.92c0-3.33,0.24-5.43,0.72-6.31
		c0.48-0.88,1.68-1.32,3.6-1.32h36.61c1.73,0,2.83,0.25,3.31,0.73c0.48,0.49,0.72,2.3,0.72,5.43V988.4c0,1.76,0.48,2.16,1.44,1.18
		l43.24-48.17c0.96-1.17,1.77-1.86,2.45-2.06c0.67-0.19,1.77-0.29,3.32-0.29h44.39c1.54,0,2.26,0.44,2.16,1.32
		c-0.1,0.88-0.53,1.81-1.3,2.79l-54.2,61.09c-0.77,0.79-1.2,1.37-1.3,1.76c-0.1,0.39,0.24,0.98,1.01,1.76l56.21,63.15
		c1.34,1.57,1.77,2.74,1.3,3.52c-0.48,0.79-1.4,1.17-2.74,1.17h-45.26c-1.92,0-3.46-0.68-4.61-2.06L1134.91,1022.18z"/>
	<linearGradient id="SVGID_1_" gradientUnits="userSpaceOnUse" x1="1244.458" y1="889.2676" x2="1302.4023" y2="889.2676">
		<stop  offset="0.0476" style="stop-color:#AC8ED4"/>
		<stop  offset="0.9462" style="stop-color:#5F4580"/>
	</linearGradient>
	<path class="st0" d="M1273.29,859.45c4.04,0,7.83,0.79,11.39,2.35c3.55,1.57,6.63,3.67,9.22,6.31c2.59,2.64,4.66,5.78,6.2,9.4
		c1.54,3.63,2.31,7.49,2.31,11.6c0,9.4-2.84,16.74-8.5,22.03c-5.67,5.29-12.54,7.93-20.61,7.93c-8.27,0-15.13-2.64-20.61-7.93
		c-5.48-5.29-8.22-12.63-8.22-22.03c0-8.42,2.74-15.47,8.22-21.15C1258.15,862.3,1265.02,859.45,1273.29,859.45z"/>
	<path d="M1295.77,1070.64c0,2.55-0.34,4.02-1.01,4.41c-0.68,0.4-1.87,0.59-3.6,0.59h-34.3c-1.92,0-3.37-0.19-4.32-0.59
		c-0.96-0.39-1.44-1.76-1.44-4.11V944.93c0-2.94,0.48-4.65,1.44-5.14c0.96-0.49,2.98-0.73,6.05-0.73h32.86
		c0.77,0,1.68,0.34,2.74,1.03c1.05,0.69,1.58,2.2,1.58,4.55V1070.64z"/>
	<path d="M1372.45,1071.52c0,1.57-0.29,2.64-0.86,3.23c-0.58,0.59-1.73,0.88-3.46,0.88h-36.32c-1.73,0-2.88-0.29-3.46-0.88
		c-0.58-0.59-0.86-1.86-0.86-3.82V862.39c0-2.74,1.25-4.11,3.75-4.11h36.61c1.92,0,3.17,0.25,3.75,0.73
		c0.58,0.49,0.86,1.72,0.86,3.67V1071.52z"/>
	<path d="M1447.69,1071.52c0,1.57-0.29,2.64-0.86,3.23c-0.58,0.59-1.73,0.88-3.46,0.88h-36.32c-1.73,0-2.88-0.29-3.46-0.88
		c-0.58-0.59-0.86-1.86-0.86-3.82V862.39c0-2.74,1.25-4.11,3.75-4.11h36.61c1.92,0,3.17,0.25,3.75,0.73
		c0.58,0.49,0.86,1.72,0.86,3.67V1071.52z"/>
	<path d="M1544.26,973.12c-6.92,0-12.73,0.44-17.44,1.32c-4.71,0.88-7.06,3.08-7.06,6.61c0,2.35,1.63,4.11,4.9,5.29
		c3.27,1.17,7.4,2.25,12.4,3.23c5,0.98,10.38,2.25,16.14,3.82c5.77,1.57,11.14,4.02,16.14,7.34c5,3.33,9.13,7.78,12.4,13.36
		c3.27,5.58,4.9,12.97,4.9,22.18c0,14.69-5.24,25.41-15.71,32.16c-10.48,6.76-25.61,10.13-45.4,10.13
		c-10.19,0-18.98-0.39-26.38-1.17c-7.4-0.79-13.69-2.35-18.88-4.7c-1.54-0.59-2.5-1.42-2.88-2.5c-0.39-1.07-0.58-2.4-0.58-3.97
		v-31.43c0-1.17,0.43-2.01,1.3-2.5c0.87-0.49,1.87-0.34,3.03,0.44c5,3.13,10.57,5.39,16.72,6.75c6.15,1.37,12.78,2.06,19.89,2.06
		c16.53,0,24.79-2.25,24.79-6.76c0-2.35-1.68-4.01-5.04-4.99c-3.37-0.98-7.54-1.96-12.54-2.94c-5-0.98-10.38-2.25-16.14-3.82
		c-5.77-1.56-11.15-4.01-16.14-7.34c-5-3.33-9.18-7.93-12.54-13.8c-3.37-5.87-5.04-13.61-5.04-23.2c0-5.68,1.2-11.06,3.6-16.15
		c2.4-5.09,6.1-9.59,11.1-13.51c5-3.91,11.24-7.05,18.74-9.4c7.5-2.35,16.43-3.52,26.81-3.52s18.78,0.54,25.22,1.62
		c6.44,1.08,11.58,2.4,15.42,3.97c2.5,0.98,4.22,2.01,5.19,3.08c0.96,1.08,1.44,2.99,1.44,5.73v26.73c0,1.76-0.48,3.08-1.44,3.97
		c-0.96,0.88-2.79,0.64-5.48-0.73c-4.61-2.35-9.66-4.16-15.13-5.43C1555.07,973.76,1549.64,973.12,1544.26,973.12z"/>
	<linearGradient id="SVGID_2_" gradientUnits="userSpaceOnUse" x1="593.573" y1="1029.843" x2="932.2495" y2="1029.843">
		<stop  offset="0.0476" style="stop-color:#AC8ED4"/>
		<stop  offset="0.9462" style="stop-color:#5F4580"/>
	</linearGradient>
	<path class="st1" d="M899.61,936.18c-27.72-21.49-58.6-23.96-90.01-7.4c-24.93,13.15-40.95,35.72-58.78,56.51
		c-15.92,18.56-32.56,36.64-50.3,53.43c-10.31,9.76-24.53,10.21-37.85,5.4c-17.81-6.43-28.32-19.7-30.07-38.42
		c-1.71-18.4,6.5-32.9,22.23-42.38c16.13-9.71,32.63-8.4,47.45,2.6c10.53,7.82,19.72,17.44,29.99,26.69
		c7.72-9.82,15.48-19.69,23.11-29.39c-11.49-16.48-32.67-33.12-50.25-39.74c-35.3-13.28-76.64,0.26-97.52,31.95
		c-21.85,33.16-17.87,76.66,9.59,104.81c27.31,27.99,69.26,33.17,102.41,12.94c22.39-13.67,37.7-34.27,54.43-53.68
		c16.18-18.77,32.2-38.13,50.97-54.08c17.52-14.88,42.76-9.77,57.6,7.55c14.22,16.6,14.09,41.68-0.31,58.07
		c-15.29,17.41-38.81,21.05-57.86,7.5c-11.02-7.83-20.48-17.85-31.12-27.31c-6.43,8.04-13.55,16.25-19.8,25.09
		c-2.42,3.42-3.96,8.23-4.02,12.44c-0.39,26.7-0.31,53.41-0.25,80.12c0.01,4.37,0.67,8.74,1.01,12.82c13.38,0,25.46,0,39.04,0
		c0-22.35,0-43.84,0-66.4c17.45,8.53,33.96,12.58,51.59,9.27c35-6.56,58.81-26.52,67.99-61.04
		C938.19,988.62,928.11,958.27,899.61,936.18z"/>
</g>
</svg>
