<svg xmlns="http://www.w3.org/2000/svg" xmlns:xlink="http://www.w3.org/1999/xlink" width="1920" zoomAndPan="magnify" viewBox="0 0 1440 809.999993" height="1080" preserveAspectRatio="xMidYMid meet" version="1.0"><defs><clipPath id="bb0aaa4233"><path d="M 0.046875 405 L 628 405 L 628 810 L 0.046875 810 Z M 0.046875 405 " clip-rule="nonzero"/></clipPath><clipPath id="d7ed984a2e"><path d="M 431 573.347656 L 631 573.347656 L 631 716 L 431 716 Z M 431 573.347656 " clip-rule="nonzero"/></clipPath><clipPath id="f76de59906"><path d="M 430 571 L 626 571 L 626 716.132812 L 430 716.132812 Z M 430 571 " clip-rule="nonzero"/></clipPath><clipPath id="234049e14b"><path d="M 531.105469 440 L 697.167969 440 L 697.167969 615 L 531.105469 615 Z M 531.105469 440 " clip-rule="nonzero"/></clipPath><clipPath id="797d06a07e"><path d="M 0 0 L 187.5 0 L 187.5 154.5 L 0 154.5 Z M 0 0 " clip-rule="nonzero"/></clipPath><clipPath id="f5b3ba594c"><path d="M 0 0 L 167.25 0 L 167.25 138 L 0 138 Z M 0 0 " clip-rule="nonzero"/></clipPath></defs><rect x="-144" width="1728" fill="#ffffff" y="-80.999999" height="971.999992" fill-opacity="1"/><rect x="-144" width="1728" fill="#ffffff" y="-80.999999" height="971.999992" fill-opacity="1"/><g clip-path="url(#bb0aaa4233)"><path fill="#6e87d1" d="M 0.171875 850.429688 L 0.171875 404.9375 C 0.171875 404.9375 114.988281 593.894531 391.152344 615.21875 C 667.328125 636.527344 625.667969 850.429688 625.667969 850.429688 Z M 0.171875 850.429688 " fill-opacity="1" fill-rule="nonzero"/></g><path fill="#100f0d" d="M 290.007812 313.480469 L 298.40625 315.703125 L 298.105469 316.855469 L 289.707031 314.628906 Z M 251.726562 338.003906 L 252.828125 338.464844 L 249.949219 345.292969 L 248.851562 344.832031 Z M 239.601562 331.90625 L 240.527344 332.652344 L 236.015625 338.269531 L 235.085938 337.523438 Z M 232.652344 324.289062 L 233.269531 325.308594 L 226.828125 329.179688 L 226.210938 328.15625 Z M 218.386719 319.214844 L 226.320312 316.40625 L 226.71875 317.535156 L 218.785156 320.34375 Z M 261.195312 337.621094 L 262.386719 337.621094 L 262.386719 345.0625 L 261.195312 345.0625 Z M 287.503906 320.59375 L 295.46875 324.257812 L 294.96875 325.34375 L 287.003906 321.679688 Z M 273.3125 334.386719 L 275.964844 340.960938 L 274.859375 341.40625 L 272.210938 334.832031 Z M 280.878906 329.222656 L 285.734375 335.386719 L 284.796875 336.125 L 279.941406 329.957031 Z M 308.953125 429.066406 L 302.867188 438.65625 L 301.863281 438.015625 L 307.949219 428.429688 Z M 359.171875 441.007812 C 358.730469 443.601562 337.417969 502.0625 312.78125 522.015625 L 312.03125 521.085938 C 335.886719 501.769531 357.578125 443.277344 358 440.804688 C 358.367188 438.660156 352.179688 411.011719 347.933594 392.953125 L 347.914062 392.878906 L 347.921875 392.796875 C 348.09375 387.542969 349.503906 346.160156 350.472656 335.214844 L 332.445312 361.324219 C 331.570312 364.941406 318.316406 419.738281 314.242188 426.417969 C 314.449219 428.546875 315.15625 435.707031 315.917969 443.910156 C 321.761719 421.800781 345.417969 421.523438 345.683594 421.523438 C 345.683594 421.523438 345.683594 421.523438 345.691406 421.523438 L 345.683594 422.71875 C 344.640625 422.71875 320.089844 423.015625 316.285156 447.949219 C 316.296875 448.070312 316.308594 448.199219 316.320312 448.320312 C 327.414062 430.003906 344.445312 437.714844 344.625 437.796875 L 344.117188 438.878906 C 343.417969 438.546875 327.003906 431.167969 316.507812 450.398438 C 317.546875 462.035156 318.476562 473.703125 318.167969 475.117188 C 317.519531 478.023438 308.007812 483.777344 306.925781 484.425781 L 306.3125 483.402344 C 310.230469 481.058594 316.597656 476.671875 317.003906 474.859375 C 317.261719 473.683594 316.425781 462.886719 315.3125 450.457031 L 315.152344 450.378906 C 315.199219 450.296875 315.242188 450.226562 315.285156 450.144531 C 314.570312 442.148438 313.746094 433.503906 313.035156 426.332031 L 313.011719 426.117188 L 313.136719 425.933594 C 316.984375 420.285156 331.167969 361.535156 331.308594 360.9375 L 331.398438 360.742188 L 350.660156 332.84375 C 347.65625 330.289062 313.183594 317.054688 290.1875 308.585938 L 290.597656 307.46875 C 304.695312 312.660156 350.773438 329.808594 351.917969 332.511719 C 352 332.714844 352 332.921875 351.917969 333.109375 C 351.269531 334.871094 349.886719 369.714844 349.113281 392.757812 C 350.28125 397.738281 359.699219 437.945312 359.171875 441.007812 Z M 207.574219 448.613281 C 200.449219 450.886719 194.03125 450.382812 188.5 447.09375 C 176.113281 439.730469 171.78125 420.640625 171.253906 418.097656 C 177.925781 406.867188 185.515625 399.769531 186.640625 398.746094 C 197.644531 397.75 206.308594 399.933594 212.394531 405.214844 C 220.066406 411.867188 221.089844 421.421875 221.195312 422.726562 C 220.496094 424.128906 214.976562 435.164062 207.574219 448.613281 Z M 213.191406 404.324219 C 206.8125 398.785156 197.777344 396.507812 186.332031 397.574219 L 186.144531 397.59375 L 186 397.722656 C 185.859375 397.84375 178.878906 404.03125 172.128906 414.441406 C 167.574219 415.503906 156.210938 433.53125 153.921875 437.242188 L 154.9375 437.867188 C 159.476562 430.53125 167.019531 419.542969 170.871094 416.4375 C 164.59375 426.675781 158.902344 440.523438 159.617188 456.449219 L 160.808594 456.398438 C 160.164062 442.042969 164.828125 429.40625 170.371094 419.632812 C 171.578125 424.835938 176.214844 441.175781 187.882812 448.117188 C 191.355469 450.179688 195.144531 451.210938 199.210938 451.210938 C 201.632812 451.210938 204.15625 450.824219 206.765625 450.09375 C 193.972656 473.234375 176.070312 502.621094 167.496094 502.953125 C 152.570312 503.542969 145.601562 490.253906 139.171875 468.664062 C 132.332031 445.699219 151.078125 417.171875 151.269531 416.886719 L 151.386719 416.714844 L 151.367188 416.511719 C 149.414062 391.464844 146.34375 343.328125 148.449219 337.007812 C 175.179688 337.550781 188.316406 392.394531 188.449219 392.953125 L 189.609375 392.683594 C 189.070312 390.394531 176.390625 337.445312 149.308594 335.835938 C 155.433594 330.6875 195.210938 317.289062 221.972656 309.089844 L 221.625 307.949219 C 214.363281 310.171875 150.570312 329.875 147.503906 336.136719 C 144.472656 342.3125 149.765625 411.277344 150.167969 416.398438 C 148.578125 418.863281 131.316406 446.457031 138.03125 469.003906 C 144.480469 490.671875 151.554688 504.164062 166.550781 504.164062 C 166.875 504.164062 167.207031 504.152344 167.539062 504.144531 C 182.332031 503.574219 220.707031 426.394531 222.335938 423.113281 L 222.402344 422.972656 L 222.398438 422.820312 C 222.375 422.371094 221.777344 411.789062 213.191406 404.324219 " fill-opacity="1" fill-rule="nonzero"/><path fill="#3e5bb2" d="M 236.308594 295.128906 L 221.800781 308.519531 C 221.800781 308.519531 238.648438 346.15625 265.53125 337.53125 C 292.421875 328.910156 290.390625 308.027344 290.390625 308.027344 L 275.050781 299.113281 Z M 202.523438 391.90625 C 202.523438 391.90625 198.414062 382.320312 190.195312 389.773438 C 185.992188 393.589844 183.464844 397.898438 181.992188 401.199219 C 180.585938 404.363281 181.109375 408.039062 183.304688 410.714844 C 189.5 418.226562 203.597656 432.652344 214.664062 424.011719 C 229.273438 412.597656 225.808594 407.425781 202.523438 391.90625 Z M 304.492188 494.875 C 324.382812 517.191406 326.625 641.480469 326.625 641.480469 L 188.519531 676.050781 C 188.519531 676.050781 173.804688 585.765625 172.589844 555.265625 C 171.375 524.761719 190.039062 494.875 190.039062 494.875 L 304.492188 494.875 " fill-opacity="1" fill-rule="nonzero"/><path fill="#edaa98" d="M 210.082031 414.855469 L 220.96875 394.46875 C 256.214844 378.945312 264.265625 366.46875 261.375 364.914062 C 258.480469 363.359375 242.453125 372.710938 242.453125 372.710938 C 265.160156 359.554688 271.285156 356.589844 268.546875 353.003906 C 265.8125 349.414062 256.5 355.816406 256.5 355.816406 C 269.894531 348.96875 271.316406 344.632812 268.070312 343.339844 C 264.695312 341.992188 233.976562 355.816406 233.976562 355.816406 C 233.976562 355.816406 250.71875 339.992188 254.675781 335.800781 C 258.628906 331.605469 254.066406 325.988281 249.957031 330.101562 C 245.847656 334.207031 214.339844 360.378906 214.339844 360.378906 C 213.28125 359.320312 218.144531 349.730469 220.277344 343.640625 C 222.410156 337.554688 216.777344 327.96875 213.886719 335.800781 C 210.992188 343.628906 202.015625 357.640625 200.34375 363.578125 C 198.664062 369.511719 200.34375 387.925781 200.34375 387.925781 L 192.277344 401.164062 C 198.972656 417.292969 210.082031 414.855469 210.082031 414.855469 Z M 295.066406 262.683594 C 293.675781 268.464844 287.59375 292.652344 283.527344 295.035156 C 281.824219 296.046875 277.550781 295.628906 276.335938 295.886719 C 274.242188 296.339844 275.386719 298.941406 274.96875 301.066406 C 274.679688 302.566406 273.761719 303.878906 272.453125 304.664062 C 267.578125 307.570312 254.6875 312.695312 238.652344 298.703125 C 237.613281 297.796875 236.9375 296.535156 236.792969 295.160156 L 234.457031 273.40625 C 234.226562 271.3125 232.8125 269.5 230.808594 268.867188 C 228.148438 268.019531 224.238281 265.773438 220.554688 259.820312 C 216.703125 253.585938 219.027344 248.496094 223.023438 246.507812 C 223.023438 246.507812 236.769531 254.960938 234.945312 249.023438 C 233.117188 243.085938 238.4375 220.257812 238.4375 220.257812 L 234.945312 216.613281 L 240.722656 218.734375 C 255.640625 209.460938 282.570312 216.007812 287.746094 217.0625 C 292.933594 218.125 294.234375 228.195312 294.234375 228.195312 L 294.21875 228.210938 C 294.519531 230.535156 294.59375 232.917969 294.28125 235.339844 C 292.71875 247.296875 294.425781 257.09375 295.105469 260.324219 C 295.273438 261.109375 295.257812 261.90625 295.066406 262.683594 " fill-opacity="1" fill-rule="nonzero"/><path fill="#ffffff" d="M 285.269531 272.734375 C 285.269531 272.734375 276.695312 278.414062 257.3125 273.746094 C 257.3125 273.746094 267.96875 284.195312 276.085938 282.167969 C 284.203125 280.140625 285.269531 272.734375 285.269531 272.734375 Z M 263.5 247.546875 C 263.5 247.546875 255.535156 241.609375 245.242188 245.316406 C 245.242188 245.316406 246.554688 252.074219 253.359375 253.234375 C 263.5 254.957031 263.5 247.546875 263.5 247.546875 Z M 285.269531 252.011719 C 278.625 253.535156 278.519531 247.347656 278.519531 247.347656 C 283.695312 241.058594 292.011719 243.191406 292.011719 243.191406 C 292.011719 243.191406 291.914062 250.492188 285.269531 252.011719 " fill-opacity="1" fill-rule="nonzero"/><path fill="#100f0d" d="M 259.582031 371.230469 L 258.964844 370.203125 C 258.613281 370.414062 257.464844 370.949219 256.832031 370.65625 C 256.730469 370.609375 256.421875 370.464844 256.300781 369.742188 C 256.007812 367.96875 260.367188 366.644531 261.917969 366.316406 L 261.671875 365.148438 C 260.945312 365.300781 254.59375 366.730469 255.128906 369.9375 C 255.3125 371.050781 255.886719 371.53125 256.335938 371.738281 C 256.636719 371.875 256.964844 371.933594 257.285156 371.933594 C 258.363281 371.933594 259.429688 371.316406 259.582031 371.230469 Z M 264.808594 358.835938 C 264.761719 358.835938 263.691406 358.804688 263.691406 356.980469 C 263.691406 355.390625 267.351562 354.203125 268.632812 353.914062 L 268.367188 352.75 C 267.765625 352.882812 262.5 354.15625 262.5 356.980469 C 262.5 359.375 264.003906 360.023438 264.800781 360.027344 Z M 265.265625 351.152344 L 265.21875 349.964844 C 265.207031 349.960938 264.164062 349.992188 263.570312 349.417969 C 263.296875 349.152344 263.160156 348.792969 263.160156 348.308594 C 263.160156 346.984375 266.390625 345.355469 268.683594 344.613281 L 268.316406 343.484375 C 267.667969 343.6875 261.96875 345.597656 261.96875 348.308594 C 261.96875 349.121094 262.230469 349.789062 262.746094 350.285156 C 263.597656 351.101562 264.867188 351.15625 265.1875 351.15625 C 265.230469 351.15625 265.257812 351.15625 265.265625 351.152344 Z M 254.289062 336.914062 L 254.042969 335.746094 C 253.953125 335.769531 251.839844 336.1875 251.257812 334.496094 C 250.804688 333.183594 253.152344 330.738281 254.738281 329.503906 L 254.003906 328.566406 C 253.515625 328.941406 249.253906 332.351562 250.132812 334.882812 C 250.707031 336.558594 252.246094 336.996094 253.417969 336.996094 C 253.746094 336.996094 254.042969 336.964844 254.289062 336.914062 Z M 216.207031 340.636719 C 219.425781 338.097656 217.164062 332.847656 217.066406 332.625 L 215.976562 333.105469 C 215.996094 333.152344 217.96875 337.726562 215.46875 339.703125 C 214.59375 340.394531 213.832031 340.695312 213.28125 340.554688 C 212.765625 340.429688 212.546875 339.953125 212.539062 339.941406 L 211.441406 340.402344 C 211.601562 340.777344 212.101562 341.480469 212.972656 341.703125 C 213.164062 341.753906 213.359375 341.777344 213.558594 341.777344 C 214.355469 341.777344 215.246094 341.398438 216.207031 340.636719 Z M 221.257812 394.988281 L 220.679688 393.945312 L 218.164062 395.339844 L 218.742188 396.382812 Z M 264.65625 360.253906 L 264.035156 359.238281 L 237.320312 375.574219 L 237.9375 376.589844 Z M 262.09375 353.390625 L 261.488281 352.363281 L 233.671875 368.769531 L 234.277344 369.796875 Z M 229.691406 360.203125 L 228.921875 359.289062 L 233.59375 355.359375 L 234.363281 356.273438 L 229.691406 360.203125 " fill-opacity="1" fill-rule="nonzero"/><path fill="#100f0d" d="M 321.015625 552.734375 C 315.382812 507.648438 305.378906 495.007812 304.953125 494.496094 L 304.03125 495.25 C 304.132812 495.375 314.242188 508.140625 319.832031 552.882812 C 325.445312 597.753906 325.402344 639.996094 325.402344 640.421875 L 326.59375 640.421875 C 326.59375 640 326.636719 597.691406 321.015625 552.734375 Z M 213.804688 497.875 L 188.601562 528.417969 L 191.265625 532.496094 L 217.464844 501.003906 Z M 213.660156 496.183594 L 219.132812 500.859375 L 191.148438 534.496094 L 187.121094 528.332031 Z M 297.542969 563.722656 L 261.898438 590.109375 L 293.296875 576.398438 L 293.777344 577.488281 L 257.945312 593.140625 L 263.828125 657.292969 L 262.640625 657.40625 L 256.6875 592.488281 L 272.242188 580.976562 L 272.242188 502.988281 L 273.433594 502.988281 L 273.433594 580.089844 L 296.832031 562.765625 L 297.542969 563.722656 " fill-opacity="1" fill-rule="nonzero"/><path fill="#ffffff" d="M 279.078125 483.914062 L 279.078125 502.769531 C 270.222656 503.496094 260.875 503.648438 251.683594 503.488281 L 251.683594 483.914062 L 279.078125 483.914062 " fill-opacity="1" fill-rule="nonzero"/><path fill="#100f0d" d="M 274.96875 487.464844 L 257.3125 487.464844 L 257.3125 499.183594 L 274.96875 499.183594 Z M 279.078125 483.914062 L 279.078125 502.769531 C 289.226562 501.9375 298.726562 500.371094 306.621094 497.75 L 306.621094 483.914062 Z M 189.84375 483.914062 L 251.683594 483.914062 L 251.683594 503.488281 C 219.054688 502.816406 188.378906 497.75 188.378906 497.75 L 189.84375 483.914062 " fill-opacity="1" fill-rule="nonzero"/><path fill="#100f0d" d="M 268.460938 324.570312 C 268.460938 323.328125 267.738281 322.273438 266.882812 322.273438 C 266.027344 322.273438 265.300781 323.328125 265.300781 324.570312 C 265.300781 325.816406 266.027344 326.867188 266.882812 326.867188 C 267.738281 326.867188 268.460938 325.816406 268.460938 324.570312 Z M 269.652344 324.570312 C 269.652344 326.492188 268.410156 328.058594 266.882812 328.058594 C 265.355469 328.058594 264.105469 326.492188 264.105469 324.570312 C 264.105469 322.652344 265.355469 321.082031 266.882812 321.082031 C 268.410156 321.082031 269.652344 322.652344 269.652344 324.570312 Z M 285.351562 305.574219 L 277.875 329.820312 L 260.585938 311.417969 L 264.34375 337.8125 L 263.167969 337.980469 L 259.363281 311.285156 L 244.714844 333.757812 L 224.566406 306.585938 L 225.527344 305.878906 L 244.648438 331.671875 L 259.644531 308.671875 L 277.335938 327.511719 L 284.214844 305.222656 L 285.351562 305.574219 " fill-opacity="1" fill-rule="nonzero"/><path fill="#100f0d" d="M 300.609375 214.71875 C 298.667969 221.496094 294.234375 228.195312 294.234375 228.195312 C 294.234375 228.195312 292.933594 218.125 287.746094 217.0625 C 282.570312 216.007812 255.640625 209.460938 240.722656 218.734375 L 234.945312 216.613281 L 238.4375 220.257812 C 238.4375 220.257812 233.117188 243.085938 234.945312 249.023438 C 236.769531 254.960938 223.023438 246.507812 223.023438 246.507812 C 219.171875 239.28125 211.949219 223.816406 216.074219 216.148438 C 221.386719 206.253906 231.597656 210.070312 232.179688 210.292969 C 231.820312 210.03125 228.136719 206.863281 242.242188 196.667969 C 248.328125 192.285156 255.449219 191.804688 262.863281 192.929688 C 246.367188 197.53125 239.222656 212.976562 239.140625 213.171875 L 240.230469 213.65625 C 240.320312 213.464844 248.007812 196.878906 265.863281 193.460938 C 269.933594 194.285156 274.0625 195.5 278.128906 196.730469 C 262.164062 200.160156 249.570312 208.539062 249.394531 208.660156 L 250.0625 209.648438 C 250.246094 209.519531 263.816406 200.492188 280.53125 197.457031 C 285.28125 198.894531 289.917969 200.253906 294.234375 200.941406 C 301.410156 202.070312 302.285156 207.457031 301.015625 213.148438 C 299.382812 210.894531 297.339844 209.132812 294.890625 207.890625 C 284.449219 202.585938 270.503906 208.355469 269.917969 208.605469 L 270.378906 209.703125 C 270.519531 209.640625 284.402344 203.902344 294.351562 208.953125 C 296.921875 210.257812 298.996094 212.203125 300.609375 214.71875 Z M 259.425781 274.832031 C 262.707031 277.597656 270.101562 283.042969 275.941406 281.589844 C 281.664062 280.160156 283.695312 275.988281 284.371094 273.882812 C 281.5 275.199219 273.550781 277.792969 259.425781 274.832031 Z M 273.867188 283.027344 C 266.019531 283.027344 257.296875 274.566406 256.898438 274.171875 L 255.355469 272.664062 L 257.453125 273.164062 C 276.359375 277.71875 284.855469 272.289062 284.9375 272.234375 L 286.046875 271.503906 L 285.855469 272.816406 C 285.847656 272.894531 284.640625 280.644531 276.230469 282.742188 C 275.457031 282.9375 274.667969 283.027344 273.867188 283.027344 Z M 268.453125 268.085938 L 267.992188 266.988281 L 271.847656 265.363281 L 272.308594 266.460938 Z M 275.703125 268.5 L 274.945312 267.582031 C 276.46875 266.316406 278.886719 263.835938 278.886719 262.5625 C 278.886719 261.199219 275.699219 255.011719 273.6875 251.425781 L 274.726562 250.84375 C 275.273438 251.820312 280.082031 260.441406 280.082031 262.5625 C 280.082031 264.808594 276.148438 268.128906 275.703125 268.5 Z M 275.234375 302.21875 L 274.050781 302.0625 L 274.75 296.914062 C 271.738281 296.339844 257.832031 293.585938 250.667969 290.1875 C 242.585938 286.355469 239.609375 274.566406 239.484375 274.070312 L 240.644531 273.78125 C 240.671875 273.902344 243.617188 285.523438 251.179688 289.113281 C 258.929688 292.785156 275.355469 295.8125 275.519531 295.839844 L 276.082031 295.945312 Z M 231.457031 257.320312 C 227.613281 251.699219 221.886719 254.015625 221.828125 254.039062 L 221.367188 252.941406 C 221.433594 252.917969 228.054688 250.234375 232.4375 256.644531 Z M 290.359375 232.5625 L 292.285156 236.21875 C 284.910156 233.75 278.21875 238.929688 278.21875 238.929688 L 278.21875 235.679688 C 283.894531 229.394531 290.359375 232.5625 290.359375 232.5625 Z M 263.3125 239.335938 C 259.875 235.679688 245.242188 237.8125 245.242188 237.8125 L 248.28125 234.363281 C 259.445312 230.304688 263.859375 236.695312 263.859375 236.695312 Z M 252.617188 253.078125 C 255.277344 242.984375 263.3125 248.796875 263.3125 248.796875 C 261.550781 255.621094 252.617188 253.078125 252.617188 253.078125 Z M 245.242188 245.773438 L 245.242188 244.507812 C 255.59375 240.199219 263.859375 247.546875 263.859375 247.546875 C 253.710938 241.761719 245.242188 245.773438 245.242188 245.773438 Z M 292.621094 242.839844 C 292.621094 242.839844 290.695312 241.160156 286.332031 242.125 C 281.972656 243.085938 278.21875 247.195312 278.21875 247.195312 C 278.21875 247.195312 286.839844 241.816406 292.21875 243.644531 Z M 282.878906 252.238281 C 283.644531 243.183594 291.515625 245.988281 291.515625 245.988281 C 289.847656 252.75 282.878906 252.238281 282.878906 252.238281 " fill-opacity="1" fill-rule="nonzero"/><path fill="#d57961" d="M 398.503906 374.800781 C 381.992188 371.859375 370.285156 344.175781 365.207031 329.589844 C 363.832031 333.523438 362.929688 337.847656 362.582031 342.601562 C 358.324219 400.429688 421.824219 479.25 421.824219 479.25 L 427.34375 477.441406 Z M 645.730469 456.09375 L 611.886719 471.027344 C 611.886719 471.027344 579.003906 437.890625 571.707031 418.703125 C 571.707031 418.703125 554.527344 410.191406 542.832031 402.644531 C 546.394531 379.019531 567.046875 367.730469 580.746094 362.789062 C 592.84375 382.335938 602.445312 399.976562 602.445312 399.976562 C 602.445312 399.976562 633.3125 421.074219 645.730469 456.09375 " fill-opacity="1" fill-rule="nonzero"/><path fill="#100f0d" d="M 572.089844 247.980469 C 566.789062 257.96875 560.910156 261.191406 557.792969 262.226562 C 554.628906 255.757812 567.839844 258.703125 567.742188 239.394531 C 567.710938 233.128906 566.480469 227.054688 564.316406 221.660156 C 569.769531 227.648438 577.210938 238.328125 572.089844 247.980469 Z M 503.695312 211.550781 L 502.507812 211.6875 C 501.339844 201.152344 512.355469 197.511719 512.46875 197.476562 L 512.832031 198.613281 C 512.414062 198.746094 502.632812 202 503.695312 211.550781 Z M 495.84375 210.894531 L 494.6875 210.589844 C 494.703125 210.535156 496.085938 204.960938 492.816406 200.226562 C 490.265625 196.539062 485.605469 194.296875 478.976562 193.5625 L 479.105469 192.382812 C 486.105469 193.148438 491.046875 195.566406 493.804688 199.566406 C 497.378906 204.753906 495.910156 210.644531 495.84375 210.894531 Z M 447.363281 193.972656 C 449.917969 190.855469 453.679688 187.824219 459.164062 185.402344 C 474.484375 178.644531 481.796875 184.679688 484.34375 187.804688 C 482.199219 188 480.015625 187.828125 477.882812 187.25 C 468.476562 184.691406 456.53125 187.34375 447.363281 193.972656 Z M 425.890625 256.0625 C 419.398438 263.230469 417.773438 271.433594 418.171875 278.75 C 417.765625 276.351562 417.613281 273.890625 417.726562 271.429688 C 418.03125 264.808594 420.296875 259.097656 423.621094 256.539062 C 428.640625 252.675781 432.410156 246.621094 434.5625 242.550781 C 433.839844 245.933594 431.527344 249.839844 425.890625 256.0625 Z M 562.839844 218.371094 C 558.023438 208.742188 550.054688 201.949219 540.679688 201.390625 C 525.328125 200.480469 529.089844 190.742188 512.652344 184.046875 C 503.84375 180.457031 496.640625 182.636719 491.847656 185.429688 C 489.917969 186.558594 487.832031 187.277344 485.6875 187.636719 C 483.304688 184.515625 475.417969 176.933594 458.683594 184.3125 C 451.007812 187.699219 446.589844 192.253906 444.070312 196.640625 C 438.53125 201.652344 434.484375 208.320312 433.457031 216.304688 C 431.824219 228.945312 434.605469 234.226562 434.8125 239.359375 C 433.222656 242.734375 428.933594 250.941406 422.894531 255.59375 C 419.300781 258.363281 416.859375 264.414062 416.539062 271.378906 C 416.269531 277.195312 417.375 282.839844 419.675781 287.886719 C 421.480469 294.519531 424.175781 299.082031 424.175781 299.082031 L 436.296875 302.191406 C 433.195312 295.207031 423.351562 270.558594 435.339844 263.570312 C 448.632812 255.816406 454.128906 238.664062 454.472656 229.671875 C 454.53125 228.148438 454.488281 226.53125 454.441406 224.8125 C 454.226562 216.304688 453.953125 205.710938 466.859375 200.132812 C 471.132812 198.285156 474.769531 198.238281 477.660156 199.996094 C 483.296875 203.417969 483.992188 212.390625 484.019531 212.765625 L 482.832031 212.855469 C 482.828125 212.765625 482.148438 204.109375 477.039062 201.015625 C 474.5 199.472656 471.230469 199.542969 467.328125 201.226562 C 455.164062 206.488281 455.414062 216.207031 455.632812 224.785156 C 455.679688 226.515625 455.722656 228.15625 455.667969 229.71875 C 455.3125 238.960938 449.644531 256.605469 435.9375 264.597656 C 424.414062 271.320312 435.425781 297.363281 437.785156 302.574219 L 443.386719 304.011719 C 442.644531 296.761719 441.613281 283.945312 442.761719 277.503906 C 444.449219 268.046875 454.933594 267.457031 455.039062 267.453125 L 455.09375 268.640625 C 454.703125 268.664062 445.453125 269.203125 443.933594 277.714844 C 442.804688 284.0625 443.894531 297.214844 444.621094 304.328125 L 544.566406 329.972656 C 542.996094 324.523438 539.835938 311.8125 540.085938 298.617188 C 540.289062 287.855469 544.972656 283.722656 548.382812 280.699219 C 550.683594 278.667969 552.34375 277.203125 552.234375 274.535156 C 552.113281 271.652344 550.734375 269.621094 549.144531 267.265625 C 546.851562 263.882812 544.253906 260.050781 545.082031 252.796875 C 545.585938 248.417969 547.871094 244.625 550.089844 240.949219 C 554.132812 234.25 557.949219 227.917969 551.570312 218.308594 C 549.300781 214.882812 546.246094 212.816406 542.492188 212.164062 C 532.523438 210.433594 520.714844 219.125 520.601562 219.214844 L 519.886719 218.261719 C 520.359375 217.90625 531.007812 210.078125 541.042969 210.804688 C 526.078125 204.394531 509.867188 213.878906 509.6875 213.984375 L 509.078125 212.960938 C 509.273438 212.84375 528.890625 201.332031 545.378906 211.726562 C 548.253906 212.8125 550.667969 214.792969 552.566406 217.652344 C 559.355469 227.890625 555.164062 234.839844 551.109375 241.566406 C 548.960938 245.125 546.742188 248.8125 546.269531 252.929688 C 545.488281 259.746094 547.847656 263.230469 550.128906 266.597656 C 551.757812 269 553.292969 271.265625 553.429688 274.484375 C 553.558594 277.71875 551.527344 279.515625 549.175781 281.59375 C 545.742188 284.628906 541.472656 288.402344 541.277344 298.640625 C 541.015625 312.273438 544.449219 325.390625 545.90625 330.316406 L 554.65625 332.558594 C 554.65625 332.558594 544.003906 313.996094 558.308594 300.488281 C 572.152344 287.417969 562.355469 270.3125 558.382812 263.316406 C 561.792969 262.152344 567.738281 258.71875 573.140625 248.539062 C 579.511719 236.535156 568.246094 223.597656 562.839844 218.371094 " fill-opacity="1" fill-rule="nonzero"/><path fill="#ffffff" d="M 562.265625 480.96875 L 482.648438 463.121094 L 494.753906 434.207031 C 494.753906 434.207031 499.054688 409.734375 488.195312 409.5 C 483.027344 409.378906 476.125 414.632812 474.296875 426.753906 C 472.289062 440.074219 475.617188 460.386719 475.617188 460.386719 L 431.382812 476.109375 L 427.34375 477.441406 L 398.503906 374.800781 C 381.992188 371.859375 370.285156 344.175781 365.207031 329.589844 C 380.300781 285.738281 452.070312 290.863281 452.070312 290.863281 L 518.703125 305.429688 C 518.703125 305.429688 545.53125 311.257812 564.089844 337.429688 C 569.726562 345.382812 575.476562 354.261719 580.746094 362.789062 C 567.046875 367.730469 546.394531 379.019531 542.832031 402.644531 C 538.585938 399.902344 535.058594 397.28125 533.34375 395.253906 L 517.722656 423.863281 C 517.722656 423.863281 552.21875 453.164062 562.265625 480.96875 " fill-opacity="1" fill-rule="nonzero"/><path fill="#3e5bb2" d="M 471.101562 407.882812 L 437.769531 393.019531 L 456.023438 342.902344 L 481.148438 349.753906 L 471.101562 407.882812 " fill-opacity="1" fill-rule="nonzero"/><path fill="#100f0d" d="M 517.433594 423.148438 L 512.21875 421.546875 L 511.867188 422.6875 L 517.429688 424.394531 C 519.199219 425.914062 551.214844 453.722656 561.328125 480.144531 L 483.472656 462.699219 L 495.304688 434.4375 L 495.335938 434.3125 C 495.460938 433.625 498.226562 417.492188 493.148438 411.304688 C 491.875 409.753906 490.210938 408.949219 488.210938 408.902344 C 482.34375 408.804688 475.492188 414.824219 473.707031 426.660156 C 471.878906 438.769531 474.460938 456.789062 474.953125 459.988281 L 431.199219 475.539062 L 427.746094 476.675781 L 399.078125 374.640625 C 392.871094 350.613281 419.941406 330.269531 420.210938 330.070312 L 419.507812 329.109375 C 419.230469 329.3125 392.226562 349.617188 397.722656 374.011719 C 395.464844 373.484375 393.292969 372.492188 391.222656 371.121094 L 396.015625 358.460938 L 394.902344 358.039062 L 390.210938 370.421875 C 386.203125 367.5 382.570312 363.210938 379.355469 358.328125 L 389.214844 346.640625 L 388.304688 345.871094 L 378.679688 357.277344 C 375.960938 353.003906 373.554688 348.335938 371.476562 343.753906 L 380.203125 335.027344 L 379.359375 334.183594 L 370.953125 342.589844 C 368.894531 337.945312 367.183594 333.441406 365.835938 329.589844 C 380.757812 286.882812 451.3125 291.410156 451.945312 291.441406 L 518.574219 306.011719 C 518.84375 306.066406 545.398438 312.105469 563.605469 337.773438 C 568.554688 344.757812 574.023438 353.066406 579.851562 362.476562 C 577.402344 363.382812 574.644531 364.539062 571.761719 365.976562 L 565.144531 359.355469 L 564.300781 360.199219 L 570.644531 366.539062 C 566.628906 368.621094 562.425781 371.261719 558.503906 374.554688 L 550.960938 367.28125 L 550.136719 368.140625 L 557.589844 375.332031 C 553.84375 378.609375 550.40625 382.519531 547.6875 387.144531 L 539.753906 382.121094 L 539.117188 383.125 L 547.089844 388.175781 C 544.90625 392.140625 543.257812 396.605469 542.390625 401.644531 C 538.144531 398.859375 535.261719 396.589844 533.816406 394.886719 L 526.238281 383.066406 L 525.238281 383.707031 L 532.652344 395.277344 Z M 542.507812 403.148438 L 543.285156 403.644531 L 543.421875 402.734375 C 547.011719 378.957031 568.476562 367.847656 580.945312 363.347656 L 581.640625 363.09375 L 581.253906 362.472656 C 575.261719 352.78125 569.648438 344.242188 564.578125 337.085938 C 546.09375 311.023438 519.101562 304.902344 518.832031 304.847656 L 452.113281 290.269531 C 451.390625 290.214844 379.710938 285.617188 364.640625 329.394531 L 364.574219 329.589844 L 364.644531 329.785156 C 370.089844 345.429688 381.636719 372.03125 398.03125 375.316406 L 426.9375 478.203125 L 431.585938 476.667969 L 476.285156 460.777344 L 476.203125 460.289062 C 476.171875 460.085938 472.910156 439.921875 474.886719 426.84375 C 476.566406 415.6875 482.859375 409.972656 488.183594 410.09375 C 489.84375 410.132812 491.167969 410.773438 492.226562 412.0625 C 496.808594 417.636719 494.363281 432.917969 494.175781 434.039062 L 481.824219 463.550781 L 563.195312 481.789062 L 562.824219 480.765625 C 553.394531 454.675781 522.230469 426.992188 518.476562 423.726562 L 533.46875 396.273438 C 535.210938 398.085938 538.246094 400.390625 542.507812 403.148438 " fill-opacity="1" fill-rule="nonzero"/><path fill="#d57961" d="M 540.496094 270.320312 C 538.828125 279.296875 528.167969 285.386719 524.972656 284.9375 C 524.972656 284.9375 517.675781 296.046875 512.644531 300.148438 L 520.867188 307.304688 C 520.867188 307.304688 501.535156 338.339844 484.1875 335.453125 L 481.148438 349.753906 C 481.148438 349.753906 461.96875 354.167969 456.023438 342.902344 L 461.058594 329.515625 C 461.058594 329.515625 443.855469 320.542969 452.070312 290.863281 L 458.925781 289.347656 C 458.925781 289.347656 456.949219 285.234375 456.636719 276.261719 C 456.636719 276.261719 456.597656 275.488281 456.585938 274.140625 C 448.769531 270.167969 449.539062 254.355469 452.6875 252.519531 C 454.890625 251.234375 456.757812 253.164062 457.894531 254.894531 C 458.90625 247.960938 460.675781 240.25 463.742188 233.253906 L 463.742188 233.957031 C 463.742188 233.957031 469.878906 226.496094 477.484375 222.691406 C 485.105469 218.890625 520.5625 224.824219 525.4375 241.109375 C 530.300781 257.390625 528.371094 268.046875 528.371094 268.046875 L 531.980469 265.460938 C 531.980469 265.460938 542.175781 261.347656 540.496094 270.320312 " fill-opacity="1" fill-rule="nonzero"/><path fill="#ffffff" d="M 481.449219 267.433594 C 481.449219 267.433594 478.863281 254.34375 468.972656 255.714844 C 459.074219 257.089844 470.335938 277.421875 481.449219 267.433594 Z M 497.429688 270.472656 C 497.429688 270.472656 505.644531 258.757812 514.933594 265.300781 C 524.21875 271.84375 506.5625 285.84375 497.429688 270.472656 " fill-opacity="1" fill-rule="nonzero"/><path fill="#100f0d" d="M 521.503906 238.5625 C 522.867188 239.144531 523.894531 240.761719 523.660156 241.957031 C 523.449219 243.039062 522.238281 243.292969 521.265625 243.308594 C 520.128906 243.328125 519.414062 243.03125 519.039062 242.394531 C 518.546875 241.554688 518.648438 240.21875 519.015625 238.789062 C 519.804688 238.28125 520.652344 238.199219 521.503906 238.5625 Z M 483.425781 212.808594 C 473.890625 216.269531 467.722656 224.160156 463.742188 233.253906 L 462.121094 236.007812 C 462.121094 236.007812 469.042969 227.53125 476.21875 223.382812 C 476.414062 223.550781 476.625 223.726562 476.835938 223.902344 C 476.128906 225.984375 475.535156 228.910156 476.660156 231.152344 C 477.480469 232.78125 479.058594 233.789062 481.359375 234.136719 L 481.542969 232.960938 C 479.644531 232.671875 478.359375 231.882812 477.726562 230.617188 C 476.859375 228.894531 477.257812 226.558594 477.828125 224.726562 C 480.90625 227.269531 485.042969 230.519531 488.605469 232.726562 C 488.074219 234.136719 487.785156 235.738281 488.207031 237.265625 C 488.761719 239.28125 490.4375 240.777344 493.179688 241.707031 L 493.5625 240.578125 C 491.214844 239.785156 489.804688 238.566406 489.355469 236.949219 C 489.035156 235.78125 489.246094 234.515625 489.652344 233.355469 C 490.542969 233.871094 491.382812 234.300781 492.140625 234.617188 C 492.457031 236.046875 493.324219 238.65625 495.574219 240.300781 C 496.886719 241.257812 498.460938 241.742188 500.277344 241.742188 C 501.105469 241.742188 501.984375 241.640625 502.917969 241.4375 L 502.664062 240.269531 C 500.0625 240.839844 497.90625 240.527344 496.285156 239.34375 C 494.679688 238.175781 493.882812 236.367188 493.496094 235.070312 C 498.636719 236.320312 512.015625 235.011719 519.523438 234.125 C 519.007812 235.191406 518.382812 236.605469 517.96875 238.074219 C 517.558594 238.398438 517.144531 238.835938 516.746094 239.410156 C 515.640625 240.96875 515.332031 242.539062 515.832031 244.066406 C 517.117188 248.027344 523.445312 250.210938 523.714844 250.300781 L 524.097656 249.171875 C 524.039062 249.148438 518.066406 247.085938 516.964844 243.695312 C 516.609375 242.613281 516.796875 241.519531 517.535156 240.363281 C 517.464844 241.355469 517.582031 242.273438 518.011719 243 C 518.617188 244.027344 519.703125 244.527344 521.289062 244.503906 C 524.089844 244.445312 524.699219 242.863281 524.828125 242.1875 C 525.171875 240.433594 523.863281 238.273438 521.96875 237.46875 C 521.480469 237.253906 520.558594 236.988281 519.488281 237.277344 C 519.914062 236.078125 520.453125 234.921875 520.914062 234.027344 C 523.050781 236.121094 524.652344 238.476562 525.4375 241.109375 C 530.300781 257.390625 528.371094 268.046875 528.371094 268.046875 L 531.980469 265.460938 C 546.136719 234.5625 512.800781 202.15625 483.425781 212.808594 " fill-opacity="1" fill-rule="nonzero"/><path fill="#100f0d" d="M 492.640625 301.054688 L 492.28125 299.921875 C 484.710938 302.332031 479.679688 299.976562 479.628906 299.953125 L 479.109375 301.023438 C 479.253906 301.097656 481.609375 302.210938 485.527344 302.210938 C 487.519531 302.210938 489.925781 301.921875 492.640625 301.054688 Z M 385.023438 366.105469 L 376.597656 364.207031 L 376.339844 365.371094 L 384.761719 367.269531 Z M 590.5625 406.488281 L 589.371094 406.488281 L 589.371094 413.714844 L 590.5625 413.714844 Z M 511.398438 301.652344 L 509.195312 307.082031 L 510.304688 307.527344 L 513.921875 298.601562 L 512.320312 299.648438 C 512.125 299.78125 492.425781 312.625 483.851562 310.875 C 474.582031 308.980469 466.597656 301.84375 459.445312 289.050781 L 458.113281 286.667969 L 458.804688 295.277344 L 459.992188 295.179688 L 459.730469 291.929688 C 466.730469 303.601562 474.558594 310.191406 483.613281 312.042969 C 484.226562 312.171875 484.890625 312.230469 485.59375 312.226562 C 493.660156 312.226562 506.84375 304.484375 511.398438 301.652344 Z M 474.066406 274.507812 C 473.816406 274.507812 473.609375 274.710938 473.609375 274.96875 C 473.609375 275.21875 473.816406 275.417969 474.066406 275.417969 C 474.316406 275.417969 474.523438 275.21875 474.523438 274.96875 C 474.523438 274.710938 474.316406 274.507812 474.066406 274.507812 Z M 468.589844 274.507812 C 468.25 274.507812 467.980469 274.78125 467.980469 275.117188 C 467.980469 275.453125 468.25 275.726562 468.589844 275.726562 C 468.925781 275.726562 469.195312 275.453125 469.195312 275.117188 C 469.195312 274.78125 468.925781 274.507812 468.589844 274.507812 Z M 464.453125 268.742188 C 464.058594 268.742188 463.742188 269.0625 463.742188 269.453125 C 463.742188 269.847656 464.058594 270.167969 464.453125 270.167969 C 464.847656 270.167969 465.164062 269.847656 465.164062 269.453125 C 465.164062 269.0625 464.847656 268.742188 464.453125 268.742188 Z M 511.382812 280.535156 C 511.070312 280.535156 510.824219 280.789062 510.824219 281.101562 C 510.824219 281.40625 511.070312 281.660156 511.382812 281.660156 C 511.691406 281.660156 511.941406 281.40625 511.941406 281.101562 C 511.941406 280.789062 511.691406 280.535156 511.382812 280.535156 Z M 506.355469 283.792969 C 505.964844 283.792969 505.644531 284.109375 505.644531 284.496094 C 505.644531 284.886719 505.964844 285.199219 506.355469 285.199219 C 506.742188 285.199219 507.058594 284.886719 507.058594 284.496094 C 507.058594 284.109375 506.742188 283.792969 506.355469 283.792969 Z M 501.410156 279.757812 C 500.976562 279.757812 500.625 280.109375 500.625 280.535156 C 500.625 280.96875 500.976562 281.320312 501.410156 281.320312 C 501.835938 281.320312 502.1875 280.96875 502.1875 280.535156 C 502.1875 280.109375 501.835938 279.757812 501.410156 279.757812 Z M 482.640625 251.660156 C 482.640625 251.660156 482.566406 247.089844 480.96875 246.03125 C 479.371094 244.964844 470.542969 239.941406 469.398438 241.996094 C 468.257812 244.050781 469.398438 247.625 470.921875 247.855469 C 472.445312 248.082031 482.980469 254.582031 482.640625 251.660156 Z M 504.816406 250.339844 C 503.960938 250.457031 503.148438 250.773438 502.445312 251.277344 C 500.773438 252.484375 498.035156 254.753906 500.058594 255.488281 C 502.863281 256.5 514.425781 256.199219 515.84375 254.425781 C 517.234375 252.6875 522.699219 247.898438 504.816406 250.339844 Z M 457.441406 264.074219 C 457.332031 259.03125 453.867188 255.355469 453.722656 255.203125 L 452.863281 256.027344 C 452.894531 256.0625 456.152344 259.515625 456.25 264.09375 Z M 538.277344 269.347656 L 538.363281 268.15625 C 538.289062 268.144531 531.117188 267.726562 527.835938 274.804688 L 528.917969 275.308594 C 531.847656 268.988281 538.011719 269.320312 538.277344 269.347656 Z M 501.183594 294.636719 C 500.785156 294.613281 499.242188 293.5625 497.816406 292.339844 L 497.042969 293.246094 C 497.351562 293.511719 497.828125 293.90625 498.34375 294.296875 C 494.546875 295.558594 482.355469 298.734375 472.515625 291.605469 L 471.816406 292.566406 C 476.832031 296.203125 482.417969 297.285156 487.285156 297.285156 C 493.238281 297.285156 498.101562 295.671875 499.546875 295.136719 C 500.179688 295.535156 500.773438 295.828125 501.183594 295.828125 Z M 490.519531 287 L 485.648438 284.261719 L 485.0625 285.300781 L 489.933594 288.039062 Z M 480.601562 285.394531 C 479.628906 284.773438 479.132812 284.0625 479.097656 283.214844 C 479.007812 281.15625 481.648438 278.679688 482.671875 277.894531 L 481.949219 276.945312 C 481.777344 277.078125 477.773438 280.164062 477.910156 283.265625 C 477.960938 284.515625 478.652344 285.570312 479.960938 286.398438 Z M 472.875 255.058594 C 465.164062 253.734375 463.742188 252.519531 463.742188 252.519531 C 463.742188 252.519531 464.527344 257.882812 465.660156 257.835938 C 465.660156 257.835938 470.136719 255.894531 474.195312 257.1875 C 475.804688 257.699219 477.269531 259.417969 478.464844 261.296875 C 478.410156 261.296875 470.769531 261.164062 470.707031 268.925781 C 470.707031 268.925781 476.046875 273.21875 481.449219 267.433594 C 481.449219 267.433594 480.585938 256.375 472.875 255.058594 Z M 520.96875 264.492188 C 520.96875 264.492188 520.054688 269.363281 518.023438 269.460938 C 518.023438 269.460938 517.851562 268.988281 517.460938 268.351562 L 518.023438 269.460938 C 515.492188 280.089844 506.242188 277.273438 506.242188 277.273438 C 506.5625 266.226562 514.730469 266.816406 516.496094 267.070312 C 515.171875 265.617188 512.875 264.175781 509.199219 264.894531 C 502.503906 266.214844 497.429688 270.472656 497.429688 270.472656 C 497.429688 270.472656 500.675781 264.148438 506.96875 262.898438 C 513.257812 261.652344 515.59375 265.507812 520.96875 264.492188 " fill-opacity="1" fill-rule="nonzero"/><path fill="#100f0d" d="M 449.929688 297.277344 L 441.761719 296.128906 L 441.59375 297.308594 L 449.765625 298.457031 Z M 454.527344 325.074219 L 446.863281 330.398438 L 447.542969 331.378906 L 455.207031 326.050781 Z M 525.449219 322.429688 L 526.03125 321.390625 L 515.796875 315.621094 C 519.054688 311.363281 521.121094 308.027344 521.375 307.617188 L 520.351562 306.992188 C 520.164062 307.308594 500.988281 338.246094 484.308594 334.871094 L 483.722656 334.75 L 476.449219 370.585938 L 477.621094 370.824219 L 484.65625 336.140625 C 487.246094 336.554688 489.859375 336.222656 492.4375 335.382812 L 494.691406 343.222656 L 495.839844 342.894531 L 493.5625 334.976562 C 496.433594 333.867188 499.253906 332.148438 501.925781 330.085938 L 507.449219 337.777344 L 508.417969 337.082031 L 502.863281 329.347656 C 505.0625 327.554688 507.167969 325.5625 509.105469 323.515625 L 515.867188 330.6875 L 516.734375 329.867188 L 509.917969 322.648438 C 511.816406 320.585938 513.554688 318.503906 515.0625 316.574219 Z M 461.328125 328.984375 L 461.804688 329.226562 L 449.230469 362.992188 L 448.113281 362.578125 L 460.320312 329.804688 C 455.089844 326.976562 452.160156 322.507812 450.617188 317.589844 L 442.378906 319.429688 L 442.121094 318.269531 L 450.277344 316.445312 C 449.523438 313.613281 449.207031 310.671875 449.152344 307.820312 L 440.589844 306.824219 L 440.726562 305.640625 L 449.136719 306.621094 C 449.183594 298.128906 451.457031 290.828125 451.503906 290.675781 L 452.640625 291.039062 C 452.546875 291.328125 443.632812 319.992188 461.328125 328.984375 " fill-opacity="1" fill-rule="nonzero"/><path fill="#3e5bb2" d="M 460.453125 293.210938 C 460.453125 296.167969 458.054688 298.566406 455.09375 298.566406 C 452.136719 298.566406 449.738281 296.167969 449.738281 293.210938 C 449.738281 290.25 452.136719 287.851562 455.09375 287.851562 C 458.054688 287.851562 460.453125 290.25 460.453125 293.210938 Z M 464.8125 304.386719 C 464.8125 307.347656 462.417969 309.746094 459.457031 309.746094 C 456.5 309.746094 454.101562 307.347656 454.101562 304.386719 C 454.101562 301.429688 456.5 299.03125 459.457031 299.03125 C 462.417969 299.03125 464.8125 301.429688 464.8125 304.386719 Z M 471.082031 314.148438 C 471.082031 317.105469 468.683594 319.503906 465.726562 319.503906 C 462.769531 319.503906 460.371094 317.105469 460.371094 314.148438 C 460.371094 311.1875 462.769531 308.792969 465.726562 308.792969 C 468.683594 308.792969 471.082031 311.1875 471.082031 314.148438 Z M 516.363281 309.15625 C 516.363281 312.121094 513.964844 314.515625 511.007812 314.515625 C 508.042969 314.515625 505.644531 312.121094 505.644531 309.15625 C 505.644531 306.203125 508.042969 303.804688 511.007812 303.804688 C 513.964844 303.804688 516.363281 306.203125 516.363281 309.15625 Z M 506.539062 316.902344 C 506.539062 319.859375 504.140625 322.253906 501.183594 322.253906 C 498.226562 322.253906 495.828125 319.859375 495.828125 316.902344 C 495.828125 313.941406 498.226562 311.542969 501.183594 311.542969 C 504.140625 311.542969 506.539062 313.941406 506.539062 316.902344 Z M 495.265625 320.695312 C 495.265625 323.652344 492.867188 326.050781 489.910156 326.050781 C 486.953125 326.050781 484.550781 323.652344 484.550781 320.695312 C 484.550781 317.738281 486.953125 315.339844 489.910156 315.339844 C 492.867188 315.339844 495.265625 317.738281 495.265625 320.695312 Z M 477.253906 315.875 C 474.296875 315.875 471.898438 318.273438 471.898438 321.230469 C 471.898438 324.191406 474.296875 326.589844 477.253906 326.589844 C 480.210938 326.589844 482.609375 324.191406 482.609375 321.230469 C 482.609375 318.273438 480.210938 315.875 477.253906 315.875 Z M 533.527344 264.960938 L 531.097656 266.09375 C 535.636719 256.808594 535.046875 243.535156 529.863281 233.3125 C 524.203125 222.15625 514.023438 214.75 501.195312 212.449219 C 473.609375 207.503906 461.847656 238.125 461.742188 238.414062 L 461.304688 235.53125 C 461.414062 235.21875 472.054688 204.808594 501.617188 210.101562 C 515.199219 212.539062 525.984375 220.398438 531.988281 232.234375 C 537.589844 243.273438 538.464844 254.871094 533.527344 264.960938 " fill-opacity="1" fill-rule="nonzero"/><path fill="#100f0d" d="M 654.949219 556.421875 L 535.476562 587.378906 L 441.886719 611.621094 L 412.761719 619.164062 L 376.640625 628.523438 L 168.523438 682.445312 L 168.226562 681.304688 L 375.671875 627.546875 L 411.949219 618.15625 L 441.339844 610.535156 L 535.476562 586.148438 L 654.648438 555.265625 L 654.949219 556.421875 " fill-opacity="1" fill-rule="nonzero"/><path fill="#100f0d" d="M 366.230469 630.832031 C 365.898438 630.210938 332.882812 568.269531 347.402344 523.90625 C 361.972656 479.40625 438.066406 472.480469 438.835938 472.417969 L 438.933594 473.605469 C 438.175781 473.667969 362.859375 480.527344 348.539062 524.273438 C 334.175781 568.152344 366.949219 629.652344 367.285156 630.265625 L 366.230469 630.832031 " fill-opacity="1" fill-rule="nonzero"/><path fill="#100f0d" d="M 492.457031 376.789062 C 488.894531 368.347656 482.84375 368.308594 479.046875 369.320312 C 481.085938 367.835938 483.910156 366.5 486.710938 367.601562 C 492.796875 370 499.191406 383.480469 498.050781 430.917969 C 496.855469 407.0625 495.039062 382.90625 492.457031 376.789062 Z M 492.0625 431.945312 C 492.0625 435.464844 489.175781 438.339844 485.65625 438.339844 C 485.347656 438.339844 485.039062 438.316406 484.742188 438.265625 C 481.664062 437.824219 477.136719 436.09375 477.136719 432.890625 L 477.949219 425.785156 C 477.949219 422.273438 481.8125 417.46875 485.316406 417.46875 C 486.535156 417.46875 488.019531 419.503906 488.996094 420.109375 C 489.425781 420.359375 489.816406 420.671875 490.175781 421.03125 C 491.34375 422.195312 492.0625 423.792969 492.0625 425.546875 Z M 472.5625 369.195312 C 462.589844 364.398438 453.960938 361.8125 446.511719 361.054688 C 458.613281 360.992188 468.15625 366.234375 472.5625 369.195312 Z M 499.96875 484.117188 C 499.96875 484.117188 499.585938 466.429688 498.707031 445.3125 C 501.070312 396.953125 497.1875 370.445312 487.144531 366.492188 C 482.132812 364.519531 477.363281 368.902344 475.742188 370.632812 C 475.660156 370.675781 475.617188 370.703125 475.617188 370.703125 L 476.003906 370.257812 C 475.808594 370.082031 458.410156 355.28125 435.816406 361.285156 C 381.03125 370.269531 409.257812 502.988281 409.257812 502.988281 L 443.421875 495.878906 C 437.40625 485.664062 437.800781 475.078125 437.8125 474.894531 L 439.191406 474.175781 C 439.179688 474.359375 438.714844 485.285156 444.871094 495.582031 L 494.386719 485.277344 C 495.207031 476.191406 494.386719 468.34375 494.386719 468.34375 L 495.484375 468.621094 C 495.554688 469.21875 496.347656 476.472656 495.65625 485.015625 L 499.96875 484.117188 " fill-opacity="1" fill-rule="nonzero"/><path fill="#ffffff" d="M 422.394531 490.851562 C 422.261719 490.394531 409.066406 444.878906 410.867188 409.078125 C 412.644531 373.78125 440.515625 373.710938 441.667969 373.734375 L 441.679688 372.542969 C 441.679688 372.542969 441.671875 372.542969 441.667969 372.542969 C 440.773438 372.542969 411.496094 372.925781 409.679688 409.019531 C 407.867188 445.019531 421.117188 490.726562 421.25 491.1875 Z M 432.875 485.257812 L 423.59375 444.890625 L 424.753906 444.625 L 434.039062 484.992188 L 432.875 485.257812 " fill-opacity="1" fill-rule="nonzero"/><g clip-path="url(#d7ed984a2e)"><path fill="#ffffff" d="M 435.132812 679.769531 C 435.132812 679.769531 426.023438 684.859375 435.132812 696.9375 C 444.242188 709.011719 472.34375 721.320312 482.660156 712.601562 C 492.980469 703.882812 485.15625 676.691406 459.117188 671.695312 C 433.078125 666.691406 435.132812 679.769531 435.132812 679.769531 Z M 630.753906 579.070312 L 617.308594 613.171875 L 491.710938 648.152344 C 484.976562 651.5 483 647.753906 483 647.753906 C 483 647.753906 468.738281 618.164062 466.425781 614.949219 C 464.109375 611.742188 468.714844 609.703125 468.714844 609.703125 L 518.28125 595.753906 L 607.847656 573.488281 L 630.753906 579.070312 " fill-opacity="1" fill-rule="nonzero"/></g><g clip-path="url(#f76de59906)"><path fill="#100f0d" d="M 482.277344 712.148438 C 481.980469 712.398438 481.652344 712.628906 481.316406 712.84375 C 480.367188 709.4375 476.828125 697.882812 471.855469 695.632812 C 477.578125 693.320312 483.195312 693.464844 485.011719 693.589844 C 485.261719 694.296875 485.484375 694.996094 485.667969 695.679688 C 487.464844 702.546875 486.164062 708.859375 482.277344 712.148438 Z M 469.640625 714.753906 C 466.050781 714.355469 462.148438 713.320312 458.265625 711.859375 C 460.320312 703.523438 465.074219 698.933594 470.066406 696.4375 C 470.097656 696.4375 470.132812 696.4375 470.167969 696.4375 C 474.652344 696.4375 478.832031 708.265625 480.246094 713.441406 C 477.558594 714.777344 473.953125 715.238281 469.640625 714.753906 Z M 435.609375 696.578125 C 432.445312 692.382812 431.183594 688.628906 431.855469 685.414062 C 432.578125 681.9375 435.398438 680.304688 435.425781 680.289062 L 435.785156 680.085938 L 435.71875 679.679688 C 435.714844 679.648438 435.289062 676.691406 437.773438 674.289062 C 439.417969 672.703125 442.574219 671.15625 448.65625 671.15625 C 451.449219 671.15625 454.851562 671.480469 459.003906 672.277344 C 473.050781 674.976562 481.214844 684.167969 484.558594 692.386719 C 482.0625 692.304688 475.960938 692.449219 470.035156 695.246094 C 470.027344 695.246094 470.023438 695.246094 470.015625 695.246094 L 470.015625 695.253906 C 464.613281 697.816406 459.375 702.59375 457.152344 711.425781 C 448.402344 707.933594 439.925781 702.300781 435.609375 696.578125 Z M 486.824219 695.375 C 484.40625 686.164062 475.734375 674.28125 459.234375 671.109375 C 448.230469 668.996094 440.726562 669.777344 436.945312 673.433594 C 434.5625 675.734375 434.453125 678.453125 434.507812 679.460938 C 433.644531 680.046875 431.382812 681.859375 430.691406 685.148438 C 429.941406 688.71875 431.273438 692.804688 434.660156 697.296875 C 441.238281 706.019531 457.199219 714.558594 469.507812 715.9375 C 470.675781 716.070312 471.796875 716.132812 472.863281 716.132812 C 477.160156 716.132812 480.640625 715.089844 483.046875 713.054688 C 487.289062 709.472656 488.738281 702.695312 486.824219 695.375 Z M 606.285156 581.421875 L 598.582031 583.574219 L 596.523438 579.574219 L 603.539062 577.609375 C 603.914062 577.5 604.398438 577.753906 604.609375 578.171875 Z M 608.980469 586.667969 L 601.285156 588.824219 L 599.125 584.621094 L 606.820312 582.464844 Z M 611.546875 591.648438 L 603.84375 593.800781 L 601.820312 589.867188 L 609.523438 587.710938 Z M 614.109375 596.628906 L 606.40625 598.785156 L 604.386719 594.851562 L 612.082031 592.695312 Z M 616.113281 600.527344 C 616.328125 600.941406 616.191406 601.363281 615.8125 601.472656 L 608.800781 603.429688 L 606.945312 599.832031 L 614.644531 597.675781 Z M 597.632812 583.84375 L 592.964844 585.148438 L 590.910156 581.144531 L 595.570312 579.839844 Z M 600.328125 589.089844 L 595.667969 590.394531 L 593.507812 586.195312 L 598.167969 584.886719 Z M 602.894531 594.074219 L 598.230469 595.375 L 596.203125 591.441406 L 600.871094 590.136719 Z M 605.457031 599.050781 L 600.789062 600.359375 L 598.765625 596.417969 L 603.429688 595.117188 Z M 607.847656 603.703125 L 603.179688 605.003906 L 601.324219 601.402344 L 605.992188 600.097656 Z M 592.011719 585.414062 L 587.125 586.78125 L 585.066406 582.78125 L 589.953125 581.414062 Z M 594.714844 590.664062 L 589.828125 592.035156 L 587.664062 587.828125 L 592.550781 586.460938 Z M 597.273438 595.640625 L 592.390625 597.011719 L 590.363281 593.078125 L 595.253906 591.707031 Z M 599.835938 600.625 L 594.949219 601.992188 L 592.925781 598.058594 L 597.816406 596.691406 Z M 602.230469 605.269531 L 597.339844 606.640625 L 595.492188 603.035156 L 600.375 601.671875 Z M 586.171875 587.050781 L 581.667969 588.308594 L 579.609375 584.304688 L 584.113281 583.046875 Z M 588.875 592.296875 L 584.371094 593.554688 L 582.207031 589.355469 L 586.710938 588.09375 Z M 591.433594 597.277344 L 586.929688 598.539062 L 584.910156 594.605469 L 589.410156 593.339844 Z M 593.996094 602.261719 L 589.496094 603.519531 L 587.472656 599.585938 L 591.976562 598.324219 Z M 596.390625 606.90625 L 591.886719 608.167969 L 590.03125 604.5625 L 594.535156 603.304688 Z M 580.71875 588.574219 L 576.4375 589.773438 L 574.378906 585.769531 L 578.660156 584.574219 Z M 583.417969 593.824219 L 579.140625 595.023438 L 576.980469 590.816406 L 581.253906 589.621094 Z M 585.980469 598.804688 L 581.699219 600 L 579.675781 596.066406 L 583.957031 594.867188 Z M 588.542969 603.785156 L 584.261719 604.980469 L 582.238281 601.046875 L 586.515625 599.851562 Z M 590.929688 608.433594 L 586.65625 609.628906 L 584.804688 606.03125 L 589.082031 604.832031 Z M 575.484375 590.039062 L 571.265625 591.222656 L 569.207031 587.21875 L 573.425781 586.035156 Z M 578.183594 595.289062 L 573.964844 596.46875 L 571.804688 592.265625 L 576.023438 591.089844 Z M 580.746094 600.269531 L 576.527344 601.449219 L 574.5 597.511719 L 578.71875 596.335938 Z M 583.308594 605.253906 L 579.089844 606.433594 L 577.066406 602.496094 L 581.285156 601.3125 Z M 585.703125 609.898438 L 581.480469 611.078125 L 579.628906 607.476562 L 583.847656 606.296875 Z M 570.316406 591.488281 L 565.484375 592.839844 L 563.425781 588.835938 L 568.25 587.484375 Z M 573.011719 596.734375 L 568.1875 598.085938 L 566.027344 593.882812 L 570.851562 592.535156 Z M 575.574219 601.71875 L 570.746094 603.070312 L 568.726562 599.132812 L 573.550781 597.785156 Z M 578.136719 606.699219 L 573.308594 608.050781 L 571.289062 604.113281 L 576.113281 602.761719 Z M 580.527344 611.347656 L 575.703125 612.699219 L 573.847656 609.09375 L 578.675781 607.742188 Z M 564.535156 593.105469 L 559.765625 594.441406 L 557.707031 590.4375 L 562.476562 589.105469 Z M 567.230469 598.351562 L 562.46875 599.6875 L 560.304688 595.484375 L 565.070312 594.152344 Z M 569.792969 603.332031 L 565.027344 604.671875 L 563.007812 600.734375 L 567.773438 599.398438 Z M 572.359375 608.316406 L 567.59375 609.652344 L 565.570312 605.714844 L 570.332031 604.382812 Z M 574.75 612.960938 L 569.984375 614.300781 L 568.128906 610.695312 L 572.894531 609.363281 Z M 558.8125 594.707031 L 521.523438 605.144531 L 519.460938 601.140625 L 556.757812 590.703125 Z M 561.511719 599.953125 L 556.75 601.289062 L 554.585938 597.085938 L 559.351562 595.753906 Z M 564.074219 604.9375 L 559.308594 606.265625 L 557.289062 602.332031 L 562.054688 601 Z M 566.640625 609.917969 L 561.875 611.253906 L 559.851562 607.316406 L 564.613281 605.984375 Z M 569.027344 614.566406 L 564.265625 615.894531 L 562.410156 612.296875 L 567.175781 610.964844 Z M 555.792969 601.554688 L 551.234375 602.832031 L 549.070312 598.632812 L 553.632812 597.355469 Z M 558.355469 606.539062 L 553.796875 607.8125 L 551.769531 603.878906 L 556.335938 602.597656 Z M 560.921875 611.519531 L 556.355469 612.796875 L 554.332031 608.855469 L 558.894531 607.582031 Z M 563.308594 616.167969 L 558.746094 617.441406 L 556.898438 613.84375 L 561.457031 612.5625 Z M 550.28125 603.101562 L 545.960938 604.308594 L 543.796875 600.105469 L 548.117188 598.898438 Z M 552.839844 608.082031 L 548.523438 609.289062 L 546.5 605.355469 L 550.816406 604.144531 Z M 555.402344 613.0625 L 551.085938 614.269531 L 549.058594 610.332031 L 553.382812 609.125 Z M 557.796875 617.707031 L 553.472656 618.917969 L 551.625 615.320312 L 555.941406 614.109375 Z M 545.007812 604.574219 L 540.6875 605.78125 L 538.523438 601.582031 L 542.847656 600.371094 Z M 547.570312 609.554688 L 543.253906 610.765625 L 541.226562 606.832031 L 545.542969 605.621094 Z M 550.128906 614.535156 L 545.8125 615.746094 L 543.789062 611.808594 L 548.109375 610.601562 Z M 552.523438 619.183594 L 548.203125 620.394531 L 546.347656 616.789062 L 550.671875 615.585938 Z M 539.730469 606.046875 L 535.234375 607.308594 L 533.066406 603.109375 L 537.570312 601.847656 Z M 542.296875 611.03125 L 537.792969 612.292969 L 535.769531 608.359375 L 540.273438 607.097656 Z M 544.859375 616.011719 L 540.355469 617.273438 L 538.335938 613.339844 L 542.832031 612.078125 Z M 547.25 620.660156 L 542.75 621.921875 L 540.894531 618.316406 L 545.394531 617.058594 Z M 534.277344 607.582031 L 530.125 608.738281 L 527.957031 604.539062 L 532.117188 603.375 Z M 536.839844 612.558594 L 532.683594 613.722656 L 530.660156 609.789062 L 534.8125 608.625 Z M 539.40625 617.539062 L 535.246094 618.703125 L 533.222656 614.765625 L 537.378906 613.605469 Z M 541.792969 622.1875 L 537.636719 623.351562 L 535.785156 619.75 L 539.941406 618.582031 Z M 529.167969 609.007812 L 524.21875 610.394531 L 522.058594 606.191406 L 527.007812 604.804688 Z M 531.730469 613.992188 L 526.78125 615.375 L 524.757812 611.441406 L 529.703125 610.050781 Z M 534.292969 618.96875 L 529.347656 620.355469 L 527.320312 616.417969 L 532.269531 615.035156 Z M 536.6875 623.617188 L 531.734375 625.003906 L 529.882812 621.398438 L 534.832031 620.015625 Z M 520.566406 605.410156 L 515.761719 606.757812 L 513.699219 602.757812 L 518.507812 601.410156 Z M 523.269531 610.664062 L 518.460938 612.007812 L 516.296875 607.804688 L 521.101562 606.457031 Z M 525.832031 615.640625 L 521.023438 616.984375 L 519 613.050781 L 523.804688 611.707031 Z M 528.390625 620.621094 L 523.585938 621.96875 L 521.558594 618.027344 L 526.367188 616.6875 Z M 530.785156 625.269531 L 525.972656 626.613281 L 524.125 623.011719 L 528.933594 621.664062 Z M 514.808594 607.027344 L 509.921875 608.390625 L 507.859375 604.390625 L 512.75 603.023438 Z M 517.507812 612.273438 L 512.617188 613.644531 L 510.457031 609.4375 L 515.34375 608.070312 Z M 520.070312 617.253906 L 515.183594 618.621094 L 513.160156 614.6875 L 518.042969 613.316406 Z M 522.628906 622.234375 L 517.746094 623.601562 L 515.71875 619.667969 L 520.605469 618.296875 Z M 525.019531 626.878906 L 520.132812 628.25 L 518.28125 624.644531 L 523.171875 623.28125 Z M 508.96875 608.660156 L 504.566406 609.890625 L 502.507812 605.890625 L 506.910156 604.65625 Z M 511.664062 613.90625 L 507.265625 615.136719 L 505.101562 610.9375 L 509.503906 609.703125 Z M 514.230469 618.886719 L 509.828125 620.121094 L 507.800781 616.183594 L 512.203125 614.949219 Z M 516.789062 623.871094 L 512.390625 625.101562 L 510.367188 621.164062 L 514.765625 619.933594 Z M 519.179688 628.515625 L 514.785156 629.75 L 512.929688 626.148438 L 517.328125 624.914062 Z M 503.609375 610.160156 L 500.023438 611.160156 L 497.960938 607.15625 L 501.554688 606.15625 Z M 506.3125 615.40625 L 502.722656 616.414062 L 500.5625 612.207031 L 504.152344 611.203125 Z M 508.875 620.382812 L 505.289062 621.390625 L 503.261719 617.457031 L 506.847656 616.449219 Z M 511.441406 625.367188 L 507.847656 626.371094 L 505.824219 622.4375 L 509.414062 621.433594 Z M 513.828125 630.011719 L 510.238281 631.019531 L 508.382812 627.414062 L 511.976562 626.414062 Z M 499.070312 611.425781 L 495.152344 612.523438 L 493.09375 608.519531 L 497.011719 607.425781 Z M 501.773438 616.679688 L 497.855469 617.773438 L 495.695312 613.566406 L 499.605469 612.472656 Z M 504.332031 621.65625 L 500.417969 622.753906 L 498.394531 618.816406 L 502.308594 617.722656 Z M 506.894531 626.636719 L 502.976562 627.738281 L 500.957031 623.796875 L 504.867188 622.703125 Z M 509.285156 631.285156 L 505.371094 632.382812 L 503.519531 628.78125 L 507.433594 627.6875 Z M 494.203125 612.789062 L 489.964844 613.976562 L 487.90625 609.972656 L 492.140625 608.785156 Z M 496.90625 618.039062 L 492.667969 619.226562 L 490.5 615.027344 L 494.738281 613.839844 Z M 499.464844 623.019531 L 495.222656 624.207031 L 493.203125 620.269531 L 497.441406 619.085938 Z M 502.027344 628.003906 L 497.789062 629.191406 L 495.765625 625.25 L 500.003906 624.066406 Z M 504.417969 632.648438 L 500.179688 633.835938 L 498.324219 630.234375 L 502.5625 629.046875 Z M 489.011719 614.242188 L 484.367188 615.542969 L 482.304688 611.542969 L 486.953125 610.238281 Z M 491.710938 619.496094 L 487.066406 620.792969 L 484.902344 616.589844 L 489.550781 615.289062 Z M 494.273438 624.472656 L 489.628906 625.773438 L 487.605469 621.835938 L 492.246094 620.539062 Z M 496.835938 629.453125 L 492.191406 630.753906 L 490.167969 626.820312 L 494.808594 625.515625 Z M 499.230469 634.101562 L 494.582031 635.402344 L 492.726562 631.800781 L 497.375 630.496094 Z M 483.414062 615.8125 L 478.6875 617.132812 L 476.628906 613.128906 L 481.355469 611.808594 Z M 486.113281 621.058594 L 481.386719 622.382812 L 479.226562 618.175781 L 483.949219 616.855469 Z M 488.675781 626.039062 L 483.949219 627.359375 L 481.921875 623.429688 L 486.648438 622.101562 Z M 491.238281 631.023438 L 486.515625 632.339844 L 484.488281 628.40625 L 489.210938 627.085938 Z M 493.625 635.667969 L 488.902344 636.988281 L 487.050781 633.390625 L 491.777344 632.066406 Z M 477.738281 617.398438 L 473.222656 618.660156 L 471.554688 615.410156 C 471.34375 614.996094 471.472656 614.574219 471.855469 614.464844 L 475.679688 613.402344 Z M 480.433594 622.648438 L 475.925781 623.910156 L 473.765625 619.703125 L 478.273438 618.449219 Z M 483 627.628906 L 478.484375 628.890625 L 476.464844 624.957031 L 480.972656 623.695312 Z M 485.558594 632.613281 L 481.050781 633.875 L 479.027344 629.9375 L 483.535156 628.671875 Z M 487.949219 637.257812 L 484.128906 638.328125 C 483.75 638.433594 483.269531 638.179688 483.054688 637.765625 L 481.589844 634.917969 L 486.097656 633.65625 Z M 603.003906 576.566406 L 471.3125 613.421875 C 470.410156 613.675781 470.089844 614.691406 470.601562 615.675781 L 482.101562 638.035156 C 482.613281 639.027344 483.761719 639.625 484.667969 639.371094 L 616.351562 602.515625 C 617.253906 602.261719 617.574219 601.246094 617.066406 600.257812 L 605.5625 577.902344 C 605.054688 576.910156 603.90625 576.308594 603.003906 576.566406 Z M 619.636719 607.378906 C 619.972656 608.027344 619.761719 608.6875 619.171875 608.855469 L 612.546875 610.710938 L 610.699219 607.128906 L 617.328125 605.277344 C 617.917969 605.109375 618.667969 605.503906 619.003906 606.144531 Z M 611.589844 610.976562 L 606.925781 612.28125 L 605.085938 608.703125 L 609.75 607.394531 Z M 605.972656 612.546875 L 601.082031 613.917969 L 599.246094 610.335938 L 604.128906 608.96875 Z M 600.128906 614.183594 L 595.628906 615.445312 L 593.785156 611.863281 L 598.289062 610.601562 Z M 594.675781 615.710938 L 590.394531 616.910156 L 588.554688 613.324219 L 592.835938 612.128906 Z M 589.445312 617.175781 L 585.226562 618.359375 L 583.382812 614.777344 L 587.601562 613.597656 Z M 584.273438 618.625 L 579.445312 619.976562 L 577.601562 616.394531 L 582.425781 615.042969 Z M 578.492188 620.242188 L 573.726562 621.578125 L 571.882812 617.992188 L 576.648438 616.660156 Z M 572.773438 621.84375 L 568.007812 623.171875 L 566.164062 619.597656 L 570.929688 618.261719 Z M 567.054688 623.445312 L 562.492188 624.71875 L 560.652344 621.140625 L 565.210938 619.863281 Z M 561.535156 624.984375 L 557.21875 626.195312 L 555.378906 622.613281 L 559.695312 621.40625 Z M 556.269531 626.460938 L 551.945312 627.671875 L 550.101562 624.089844 L 554.425781 622.878906 Z M 550.992188 627.9375 L 546.488281 629.199219 L 544.648438 625.617188 L 549.152344 624.355469 Z M 545.539062 629.464844 L 541.378906 630.628906 L 539.535156 627.046875 L 543.695312 625.882812 Z M 540.425781 630.894531 L 535.480469 632.28125 L 533.636719 628.699219 L 538.585938 627.3125 Z M 534.523438 632.546875 L 529.71875 633.890625 L 527.875 630.3125 L 532.683594 628.964844 Z M 528.765625 634.15625 L 523.878906 635.527344 L 522.039062 631.945312 L 526.925781 630.578125 Z M 522.925781 635.792969 L 518.523438 637.027344 L 516.683594 633.445312 L 521.085938 632.214844 Z M 517.574219 637.292969 L 513.984375 638.296875 L 512.136719 634.714844 L 515.730469 633.710938 Z M 513.027344 638.5625 L 509.117188 639.660156 L 507.273438 636.082031 L 511.1875 634.980469 Z M 508.160156 639.925781 L 503.921875 641.113281 L 502.078125 637.535156 L 506.320312 636.347656 Z M 502.96875 641.378906 L 498.324219 642.679688 L 496.484375 639.097656 L 501.128906 637.796875 Z M 497.371094 642.949219 L 492.648438 644.265625 L 490.804688 640.6875 L 495.53125 639.367188 Z M 491.695312 644.535156 L 488.257812 645.496094 C 487.664062 645.664062 486.914062 645.273438 486.582031 644.625 L 485.945312 643.390625 C 485.617188 642.742188 485.824219 642.082031 486.414062 641.914062 L 489.847656 640.957031 Z M 616.792969 604.226562 L 485.878906 640.871094 C 484.757812 641.183594 484.363281 642.4375 484.992188 643.65625 L 485.628906 644.890625 C 486.257812 646.113281 487.675781 646.855469 488.792969 646.542969 L 619.707031 609.898438 C 620.824219 609.585938 621.222656 608.335938 620.59375 607.113281 L 619.960938 605.878906 C 619.324219 604.65625 617.910156 603.914062 616.792969 604.226562 Z M 623.792969 607.242188 C 624.652344 608.910156 624.113281 610.621094 622.589844 611.042969 L 487.671875 648.808594 C 486.140625 649.234375 484.207031 648.222656 483.347656 646.550781 L 466.835938 614.453125 C 465.972656 612.785156 466.511719 611.078125 468.039062 610.652344 L 602.960938 572.886719 C 604.484375 572.464844 606.425781 573.472656 607.28125 575.144531 Z M 602.421875 571.839844 L 467.5 609.605469 C 465.449219 610.179688 464.726562 612.472656 465.878906 614.722656 L 482.394531 646.824219 C 483.546875 649.066406 486.15625 650.425781 488.207031 649.851562 L 623.128906 612.09375 C 625.175781 611.515625 625.90625 609.222656 624.746094 606.976562 L 608.238281 574.875 C 607.082031 572.632812 604.46875 571.273438 602.421875 571.839844 " fill-opacity="1" fill-rule="nonzero"/></g><path fill="#edaa98" d="M 417.804688 669.152344 C 426 690 422.242188 679.554688 435.332031 692.792969 C 448.421875 706.03125 460.140625 709.628906 462.425781 709.628906 C 464.710938 709.628906 461.304688 704.863281 461.304688 704.863281 C 461.304688 704.863281 466.074219 712.675781 469.730469 712.675781 C 473.382812 712.675781 471.554688 707.957031 471.554688 707.957031 C 471.554688 707.957031 471.554688 709.328125 475.363281 709.019531 C 479.167969 708.714844 471.710938 690.609375 471.253906 688.023438 C 470.796875 685.4375 465.683594 677.109375 465.683594 677.109375 L 473.382812 679.097656 C 473.382812 679.097656 481.800781 700.296875 484.644531 698.671875 C 487.488281 697.054688 485.152344 675.238281 479.46875 670.574219 C 473.789062 665.90625 441.117188 654.546875 441.117188 654.546875 C 441.117188 654.546875 409.613281 648.308594 417.804688 669.152344 Z M 488.992188 420.082031 C 488.015625 419.476562 486.867188 419.132812 485.652344 419.132812 C 482.152344 419.132812 479.265625 422 479.265625 425.519531 L 479.265625 431.921875 C 479.265625 435.125 481.65625 437.792969 484.734375 438.234375 L 485.371094 474.925781 C 458.460938 497.882812 439.179688 474.492188 439.179688 474.492188 L 447.324219 469.957031 L 446.8125 458.761719 C 434.808594 462.351562 427.609375 460.875 419.210938 442.707031 C 410.820312 424.542969 418.007812 418.199219 418.007812 418.199219 C 418.007812 418.199219 412.523438 391.121094 437.546875 383.242188 C 444.132812 381.164062 449.878906 381.675781 454.785156 383.539062 C 458.972656 380.371094 469.558594 374.800781 469.558594 374.800781 C 469.558594 374.800781 460.570312 381.140625 455.894531 383.96875 C 468.976562 389.570312 475.769531 404.660156 475.769531 404.660156 C 475.769531 404.660156 481.433594 394.894531 491.03125 402.085938 C 497.085938 406.625 492.90625 414.730469 488.992188 420.082031 " fill-opacity="1" fill-rule="nonzero"/><path fill="#100f0d" d="M 466.074219 676.660156 L 463.933594 674.792969 L 463.152344 675.691406 L 465.292969 677.558594 Z M 462.707031 705.894531 L 450.222656 688.789062 L 449.257812 689.492188 L 461.742188 706.597656 Z M 470.996094 708.167969 C 470.945312 708.027344 465.714844 694.210938 464.421875 691.527344 C 463.15625 688.886719 456.253906 680.675781 456.183594 680.597656 L 457.097656 679.824219 C 457.386719 680.167969 464.164062 688.234375 465.496094 691.007812 C 466.8125 693.742188 471.902344 707.175781 472.117188 707.75 L 470.996094 708.167969 " fill-opacity="1" fill-rule="nonzero"/><path fill="#3e5bb2" d="M 495.507812 468.832031 C 495.816406 471.699219 498.359375 498.894531 486.347656 509.703125 C 483.160156 512.566406 479.226562 514.003906 474.597656 514.003906 C 472.734375 514.003906 470.765625 513.773438 468.6875 513.308594 C 438.359375 506.523438 437.765625 478.535156 437.808594 475.230469 C 432.359375 477.96875 391.386719 498.664062 389.671875 502.082031 C 387.84375 505.726562 363.796875 613.457031 365.621094 616.808594 C 366.109375 617.710938 370.105469 621.898438 375.671875 627.546875 C 375.984375 627.867188 376.304688 628.191406 376.640625 628.523438 C 391.972656 644.003906 417.804688 669.15625 417.804688 669.15625 L 441.113281 654.542969 L 412.761719 619.164062 L 411.949219 618.15625 L 398.195312 600.976562 L 415.144531 559.59375 L 441.339844 610.535156 L 535.476562 586.148438 L 535.476562 478.035156 Z M 447.324219 469.957031 L 447.050781 465.855469 L 484.925781 449.117188 L 485.226562 466.460938 L 494.410156 468.578125 C 494.660156 471.269531 496.914062 498.59375 485.550781 508.8125 C 481.386719 512.558594 475.800781 513.679688 468.949219 512.144531 C 439.523438 505.558594 439.128906 477.710938 439.179688 474.492188 L 447.324219 469.957031 " fill-opacity="1" fill-rule="nonzero"/><path fill="#ffffff" d="M 440.101562 441.394531 C 429.246094 445.246094 426.605469 438.25 426.605469 438.25 C 434.621094 438.859375 456.742188 422.121094 456.742188 422.121094 C 456.742188 422.121094 450.957031 437.539062 440.101562 441.394531 " fill-opacity="1" fill-rule="nonzero"/><path fill="#100f0d" d="M 461.378906 707.78125 C 461.371094 707.765625 461.375 707.691406 461.347656 707.546875 C 461.046875 706.09375 460.027344 704.140625 458.730469 703.375 C 458.414062 703.195312 458.113281 703.101562 457.824219 703.101562 C 457.6875 703.101562 457.558594 703.121094 457.425781 703.15625 L 457.421875 703.160156 C 457.039062 703.277344 456.210938 703.664062 456.078125 704.125 C 456.015625 704.355469 456.132812 704.636719 456.429688 704.976562 C 457.851562 706.578125 460.785156 708.03125 461.378906 707.78125 Z M 462.511719 707.304688 C 462.726562 708.320312 462.175781 708.714844 461.929688 708.835938 C 461.738281 708.933594 461.507812 708.976562 461.25 708.976562 C 459.554688 708.976562 456.683594 707.058594 455.535156 705.765625 C 454.808594 704.941406 454.804688 704.242188 454.929688 703.796875 C 455.277344 702.597656 456.871094 702.082031 457.074219 702.019531 C 457.804688 701.796875 458.585938 701.910156 459.335938 702.351562 C 460.941406 703.296875 462.148438 705.554688 462.511719 707.304688 Z M 470.113281 707.179688 L 470.113281 707.183594 C 470.113281 707.183594 469.464844 705.601562 468.109375 704.511719 C 467.539062 704.097656 466.582031 703.617188 465.953125 703.617188 C 465.8125 703.617188 465.691406 703.640625 465.589844 703.699219 C 465.261719 703.882812 465.117188 704.515625 465.191406 705.480469 C 465.335938 707.441406 467.179688 709.4375 468.808594 710.078125 C 469.433594 710.324219 469.9375 710.328125 470.1875 710.09375 C 470.335938 709.957031 470.777344 709.328125 470.113281 707.179688 Z M 471.234375 706.789062 C 471.875 708.835938 471.789062 710.230469 470.996094 710.964844 C 470.648438 711.292969 470.191406 711.453125 469.660156 711.453125 C 469.269531 711.453125 468.835938 711.367188 468.375 711.1875 C 466.375 710.402344 464.1875 708.089844 464 705.570312 C 463.886719 704.074219 464.226562 703.09375 465.011719 702.65625 C 466.433594 701.863281 468.585938 703.378906 468.828125 703.558594 L 468.847656 703.570312 C 470.476562 704.875 471.207031 706.710938 471.234375 706.789062 Z M 474.136719 706.765625 C 473.308594 706.257812 472.726562 705.304688 472.402344 703.9375 C 472.0625 702.492188 472.128906 701.429688 472.605469 700.871094 C 473.027344 700.367188 473.691406 700.414062 473.71875 700.410156 L 473.765625 699.820312 L 473.816406 699.222656 C 473.765625 699.214844 472.542969 699.121094 471.710938 700.085938 C 470.960938 700.949219 470.800781 702.34375 471.246094 704.214844 C 471.640625 705.910156 472.414062 707.113281 473.53125 707.789062 C 474.3125 708.269531 475.109375 708.382812 475.6875 708.382812 C 476.175781 708.382812 476.507812 708.300781 476.535156 708.292969 L 476.246094 707.136719 C 476.238281 707.136719 475.148438 707.390625 474.136719 706.765625 Z M 483.144531 691.972656 C 482.675781 688.726562 485.285156 688.234375 485.589844 688.1875 L 485.5 687.597656 L 485.417969 687.003906 C 485.347656 687.019531 483.722656 687.261719 482.695312 688.628906 C 482.007812 689.546875 481.761719 690.730469 481.960938 692.140625 C 482.589844 696.464844 485.277344 697.035156 485.386719 697.054688 L 485.621094 695.882812 C 485.542969 695.867188 483.640625 695.410156 483.144531 691.972656 Z M 410.058594 654.101562 L 422.03125 665.726562 L 422.863281 664.871094 L 410.890625 653.242188 Z M 414.722656 648.070312 L 429.019531 662.285156 L 429.863281 661.441406 L 415.558594 647.222656 Z M 422.023438 643.660156 L 436.007812 657.898438 L 436.855469 657.0625 L 422.871094 642.828125 Z M 451.492188 477.523438 L 452.6875 477.523438 L 452.6875 463.628906 L 451.492188 463.628906 Z M 461.957031 478.03125 L 461.957031 459.53125 L 460.765625 459.53125 L 460.765625 478.03125 Z M 469.742188 483.289062 L 470.933594 483.289062 L 470.933594 455.566406 L 469.742188 455.566406 Z M 477.386719 473.566406 L 478.578125 473.566406 L 478.578125 452.1875 L 477.386719 452.1875 Z M 433.054688 542.417969 L 416.996094 557.089844 L 426.425781 537.328125 L 425.347656 536.816406 L 413.289062 562.09375 L 433.859375 543.296875 Z M 484.632812 466.480469 L 484.8125 473.027344 L 486.003906 472.992188 L 485.824219 466.449219 Z M 420.300781 397.933594 L 419.476562 399.972656 L 424.175781 396.367188 C 424.175781 396.367188 421.625 396.269531 420.300781 397.933594 Z M 425.820312 412.460938 C 424.222656 413.40625 422.132812 414.847656 421.726562 416.148438 C 421.589844 416.574219 421.628906 416.996094 421.824219 417.351562 C 422.863281 419.21875 427.300781 424.058594 427.488281 424.261719 L 428.367188 423.457031 C 428.320312 423.410156 423.835938 418.515625 422.867188 416.777344 C 422.847656 416.742188 422.8125 416.671875 422.863281 416.5 C 423.226562 415.335938 426.324219 413.445312 428.191406 412.523438 L 427.664062 411.457031 C 427.476562 411.550781 426.777344 411.902344 425.925781 412.398438 C 424.976562 411.871094 420.125 409.308594 417.523438 410.675781 L 413.617188 409.492188 L 417.804688 413.714844 C 417.804688 413.714844 421.753906 411.882812 425.820312 412.460938 Z M 449.03125 388.355469 C 438.578125 386.226562 433.457031 393.019531 433.457031 393.019531 C 437.972656 390.28125 459.480469 390.488281 449.03125 388.355469 Z M 438.882812 409.050781 C 443.25 404.992188 454.613281 403.164062 454.613281 403.164062 L 455.527344 397.484375 L 451.261719 400.324219 C 442.539062 401.945312 438.882812 409.050781 438.882812 409.050781 Z M 478.695312 412.324219 L 479.835938 412.671875 C 481.695312 406.542969 487.878906 407.082031 488.136719 407.105469 L 488.257812 405.921875 C 488.1875 405.914062 480.84375 405.242188 478.695312 412.324219 Z M 469.949219 442.101562 C 469.796875 442.234375 454.335938 455.488281 446.613281 458.195312 L 447.003906 459.320312 C 454.945312 456.539062 470.085938 443.554688 470.726562 443.003906 Z M 455.320312 423.910156 C 450.109375 427.707031 434.96875 438.300781 427.597656 438.835938 C 428.65625 440.453125 431.902344 443.675781 439.902344 440.828125 C 448.0625 437.933594 453.355469 428.160156 455.320312 423.910156 Z M 440.304688 441.957031 C 437.910156 442.804688 435.894531 443.140625 434.199219 443.140625 C 427.90625 443.140625 426.070312 438.519531 426.050781 438.460938 L 425.722656 437.585938 L 426.652344 437.652344 C 426.789062 437.664062 426.929688 437.667969 427.066406 437.667969 C 435.109375 437.667969 456.167969 421.808594 456.382812 421.644531 L 457.265625 420.980469 C 455.582031 420.183594 454.34375 419.25 454.25 419.171875 L 454.972656 418.226562 C 455.011719 418.257812 458.871094 421.175781 461.96875 420.894531 L 462.074219 422.082031 C 461.898438 422.101562 461.722656 422.105469 461.542969 422.105469 C 460.246094 422.105469 458.902344 421.703125 457.730469 421.191406 L 457.300781 422.332031 C 457.058594 422.96875 451.292969 438.054688 440.304688 441.957031 Z M 435.984375 420.683594 L 430.605469 419.160156 L 430.929688 418.015625 L 436.308594 419.535156 L 435.984375 420.683594 " fill-opacity="1" fill-rule="nonzero"/><path fill="#ffffff" d="M 682.605469 574.382812 L 543.285156 613.269531 C 537.496094 614.886719 531.769531 610.507812 531.816406 604.496094 L 532.703125 482.121094 C 532.730469 477.910156 535.664062 474.277344 539.777344 473.363281 L 685.566406 440.910156 C 691.445312 439.605469 696.9375 444.296875 696.554688 450.304688 L 689.199219 566.246094 C 688.953125 570.085938 686.3125 573.347656 682.605469 574.382812 " fill-opacity="1" fill-rule="nonzero"/><path fill="#100f0d" d="M 641.265625 536.253906 C 640.957031 536.253906 640.644531 536.285156 640.332031 536.355469 L 603.859375 544.550781 C 601.925781 544.984375 600.578125 546.667969 600.578125 548.648438 L 600.578125 578.738281 C 600.578125 580.058594 601.175781 581.269531 602.214844 582.074219 C 603.257812 582.875 604.589844 583.140625 605.863281 582.804688 L 641.488281 573.359375 C 643.277344 572.882812 644.5625 571.261719 644.613281 569.414062 L 645.457031 540.582031 C 645.492188 539.273438 644.941406 538.046875 643.929688 537.210938 C 643.164062 536.582031 642.230469 536.253906 641.265625 536.253906 Z M 604.769531 584.140625 C 603.597656 584.140625 602.453125 583.753906 601.488281 583.019531 C 600.152344 581.984375 599.382812 580.429688 599.382812 578.738281 L 599.382812 548.648438 C 599.382812 546.105469 601.117188 543.941406 603.597656 543.386719 L 640.074219 535.191406 C 641.707031 534.828125 643.394531 535.222656 644.6875 536.292969 C 645.984375 537.359375 646.699219 538.9375 646.648438 540.617188 L 645.804688 569.445312 C 645.734375 571.820312 644.085938 573.902344 641.796875 574.507812 L 606.167969 583.953125 C 605.703125 584.082031 605.234375 584.140625 604.769531 584.140625 " fill-opacity="1" fill-rule="nonzero"/><path fill="#ffffff" d="M 672.433594 629.515625 L 599.789062 656.753906 C 598.109375 657.382812 596.230469 657.265625 594.644531 656.421875 L 573.164062 645.089844 C 568.222656 642.488281 568.875 635.214844 574.199219 633.523438 L 651.582031 608.972656 C 653.171875 608.46875 654.894531 608.613281 656.378906 609.378906 L 673.113281 618.035156 C 677.964844 620.539062 677.542969 627.601562 672.433594 629.515625 " fill-opacity="1" fill-rule="nonzero"/><g clip-path="url(#234049e14b)"><path fill="#100f0d" d="M 540.84375 608.605469 C 540.839844 607.425781 540.542969 490.347656 540.84375 485.550781 C 541.105469 481.371094 543.96875 479.757812 544.402344 479.535156 L 689.535156 446.835938 L 689.269531 445.675781 L 544.078125 478.390625 L 543.957031 478.429688 C 543.796875 478.503906 539.972656 480.308594 539.652344 485.476562 C 539.351562 490.308594 539.636719 603.78125 539.652344 608.609375 Z M 687.554688 441.285156 C 686.941406 441.285156 686.316406 441.355469 685.695312 441.496094 L 539.910156 473.945312 C 536.042969 474.804688 533.324219 478.167969 533.300781 482.125 L 532.410156 604.503906 C 532.386719 607.179688 533.597656 609.644531 535.722656 611.273438 C 537.851562 612.898438 540.546875 613.410156 543.121094 612.699219 L 682.449219 573.808594 C 685.902344 572.839844 688.375 569.789062 688.605469 566.210938 L 695.957031 450.265625 C 696.128906 447.59375 695.058594 445.0625 693.019531 443.316406 C 691.46875 441.988281 689.546875 441.285156 687.554688 441.285156 Z M 540.824219 614.207031 C 538.746094 614.207031 536.710938 613.527344 535 612.21875 C 532.574219 610.363281 531.195312 607.546875 531.21875 604.492188 L 532.109375 482.117188 C 532.136719 477.605469 535.242188 473.761719 539.648438 472.78125 L 685.4375 440.328125 C 688.417969 439.664062 691.46875 440.425781 693.796875 442.414062 C 696.121094 444.402344 697.347656 447.292969 697.148438 450.347656 L 689.796875 566.285156 C 689.535156 570.371094 686.714844 573.855469 682.769531 574.953125 L 543.449219 613.84375 C 542.578125 614.085938 541.695312 614.207031 540.824219 614.207031 " fill-opacity="1" fill-rule="nonzero"/></g><path fill="#100f0d" d="M 598.714844 652.019531 L 573.804688 638.65625 L 573.238281 639.707031 L 598.148438 653.070312 Z M 653.140625 609.28125 C 652.679688 609.3125 652.214844 609.394531 651.761719 609.539062 L 574.378906 634.097656 C 572.148438 634.800781 570.632812 636.691406 570.425781 639.019531 C 570.21875 641.347656 571.371094 643.472656 573.445312 644.5625 L 594.917969 655.898438 C 596.355469 656.65625 598.0625 656.769531 599.578125 656.195312 L 672.226562 628.957031 C 674.367188 628.15625 675.777344 626.242188 675.914062 623.960938 C 676.050781 621.683594 674.875 619.613281 672.84375 618.5625 L 656.101562 609.910156 C 655.175781 609.429688 654.15625 609.21875 653.140625 609.28125 Z M 598.015625 657.738281 C 596.761719 657.8125 595.496094 657.550781 594.363281 656.953125 L 572.886719 645.621094 C 570.382812 644.296875 568.988281 641.730469 569.238281 638.910156 C 569.492188 636.09375 571.320312 633.8125 574.015625 632.957031 L 651.398438 608.40625 C 653.15625 607.851562 655.015625 608.003906 656.652344 608.851562 L 673.390625 617.503906 C 675.84375 618.773438 677.269531 621.273438 677.105469 624.03125 C 676.941406 626.792969 675.234375 629.105469 672.644531 630.074219 L 600 657.3125 C 599.355469 657.550781 598.683594 657.695312 598.015625 657.738281 " fill-opacity="1" fill-rule="nonzero"/><path fill="#ffffff" d="M 634.515625 556.519531 L 639.257812 566.671875 C 639.503906 567.207031 639.628906 567.789062 639.628906 568.375 L 639.628906 621.34375 C 639.628906 623.082031 638.523438 624.617188 636.878906 625.167969 L 620.851562 630.507812 C 618.199219 631.390625 615.46875 629.367188 615.554688 626.566406 L 617.09375 573.675781 C 617.113281 573.101562 617.007812 572.527344 616.78125 572.003906 L 613.097656 563.210938 C 612.140625 560.925781 613.453125 558.328125 615.859375 557.742188 L 629.914062 554.308594 C 631.777344 553.851562 633.707031 554.78125 634.515625 556.519531 " fill-opacity="1" fill-rule="nonzero"/><path fill="#100f0d" d="M 630.054688 554.886719 L 616 558.316406 C 615.023438 558.554688 614.203125 559.207031 613.746094 560.105469 C 613.292969 561.003906 613.257812 562.050781 613.648438 562.980469 L 617.332031 571.769531 C 617.589844 572.378906 617.710938 573.027344 617.691406 573.691406 L 616.148438 626.585938 C 616.117188 627.722656 616.621094 628.761719 617.53125 629.441406 C 618.445312 630.121094 619.589844 630.296875 620.667969 629.9375 L 636.691406 624.597656 C 638.09375 624.132812 639.035156 622.824219 639.035156 621.34375 L 639.035156 568.375 C 639.035156 567.867188 638.925781 567.378906 638.71875 566.921875 L 633.976562 556.773438 C 633.292969 555.292969 631.644531 554.5 630.054688 554.886719 Z M 619.5625 631.316406 C 618.589844 631.316406 617.636719 631 616.820312 630.394531 C 615.589844 629.484375 614.910156 628.082031 614.957031 626.550781 L 616.5 573.660156 C 616.511719 573.167969 616.425781 572.6875 616.234375 572.230469 L 612.550781 563.441406 C 612.023438 562.191406 612.074219 560.78125 612.683594 559.570312 C 613.292969 558.359375 614.398438 557.480469 615.714844 557.164062 L 629.773438 553.730469 C 631.898438 553.214844 634.128906 554.277344 635.058594 556.269531 L 639.792969 566.417969 C 640.082031 567.035156 640.226562 567.695312 640.226562 568.375 L 640.226562 621.34375 C 640.226562 623.335938 638.960938 625.101562 637.070312 625.730469 L 621.042969 631.074219 C 620.554688 631.234375 620.058594 631.316406 619.5625 631.316406 " fill-opacity="1" fill-rule="nonzero"/><g clip-path="url(#797d06a07e)"><path fill="#304994" d="M 187.550781 -0.0078125 L 187.550781 17.667969 C 186.1875 22.230469 183.925781 26.769531 180.621094 31.179688 C 156.605469 63.199219 95.722656 41.574219 67.136719 70.160156 C 49.582031 87.714844 27.949219 137.949219 -1.300781 154.515625 L -1.300781 -0.0078125 Z M 187.550781 -0.0078125 " fill-opacity="1" fill-rule="nonzero"/></g><g clip-path="url(#f5b3ba594c)"><path fill="#3e5bb2" d="M 167.285156 -0.0078125 L 167.285156 15.773438 C 166.070312 19.847656 164.050781 23.902344 161.097656 27.835938 C 139.660156 56.421875 85.300781 37.121094 59.777344 62.640625 C 44.105469 78.3125 24.792969 123.164062 -1.320312 137.953125 L -1.320312 -0.0078125 Z M 167.285156 -0.0078125 " fill-opacity="1" fill-rule="nonzero"/></g></svg>